<svg id="Capa_1" enable-background="new 0 0 512 512" height="512" viewBox="0 0 512 512" width="512" xmlns="http://www.w3.org/2000/svg"><g><g><path d="m256 504.5c-96.65 0-175-78.35-175-175v-147c0-96.65 78.35-175 175-175 96.65 0 175 78.35 175 175v147c0 96.65-78.35 175-175 175z" fill="#b0d8fd"/></g><g><g><path d="m82.382 160.421c-.91 7.232-1.382 14.6-1.382 22.079v147c0 96.65 78.35 175 175 175 58.791 0 110.808-28.993 142.541-73.458z" fill="#72bafd"/></g></g><g><path d="m256 45c-10.355 0-18.75-8.395-18.75-18.75s8.395-18.75 18.75-18.75c-96.65 0-175 78.35-175 175v147c0 96.65 78.35 175 175 175 44.318 0 84.781-16.482 115.614-43.641l.018-.093-212.905-180.993z" fill="#9ccefd"/></g><g><circle cx="256" cy="182.5" fill="#ffdfcf" r="137.564"/></g><g><path d="m198.727 279.773c-53.636-53.636-53.636-140.909 0-194.545 21.728-21.729 48.977-34.652 77.273-38.776-41.553-6.056-85.365 6.867-117.273 38.776-53.636 53.636-53.636 140.909 0 194.545 31.908 31.908 75.72 44.832 117.273 38.776-28.296-4.125-55.545-17.048-77.273-38.776z" fill="#ffcebf"/></g><g><g><g><ellipse cx="176.443" cy="220.613" fill="#fda0c1" rx="29.355" ry="23.377"/></g><g><ellipse cx="335.557" cy="220.613" fill="#fda0c1" rx="29.355" ry="23.377"/></g></g><g><path d="m193.551 205.61c-4.142 0-7.5-3.357-7.5-7.5v-12c0-4.143 3.358-7.5 7.5-7.5s7.5 3.357 7.5 7.5v12c0 4.143-3.358 7.5-7.5 7.5z"/></g><g><path d="m318.448 205.61c-4.143 0-7.5-3.357-7.5-7.5v-12c0-4.143 3.357-7.5 7.5-7.5s7.5 3.357 7.5 7.5v12c0 4.143-3.357 7.5-7.5 7.5z"/></g><g><path d="m256 212.753c-8.478 0-16.54-3.671-22.119-10.072-2.721-3.123-2.396-7.86.727-10.582 3.124-2.721 7.86-2.396 10.582.727 2.729 3.132 6.669 4.928 10.81 4.928s8.081-1.796 10.81-4.927c2.72-3.125 7.459-3.449 10.581-.728 3.123 2.721 3.449 7.459.728 10.581-5.579 6.402-13.64 10.073-22.119 10.073z"/></g></g><g><path d="m256 0c-100.631 0-182.5 81.869-182.5 182.5v147c0 100.631 81.869 182.5 182.5 182.5 45.924 0 87.935-17.057 120.046-45.16.372-.274.719-.582 1.036-.92 37.651-33.455 61.418-82.21 61.418-136.42v-147c0-100.631-81.869-182.5-182.5-182.5zm167.5 329.5c0 47.657-20.007 90.728-52.061 121.258l-47.134-40.069c-3.156-2.686-7.89-2.299-10.571.856-2.684 3.155-2.3 7.889.856 10.571l45.401 38.595c-28.589 22.706-64.732 36.289-103.991 36.289-92.36 0-167.5-75.141-167.5-167.5v-147c0-92.359 75.14-167.5 167.5-167.5 92.359 0 167.5 75.141 167.5 167.5z"/><path d="m256 37.436c-35.929 0-70.425 13.285-97.136 37.407-26.511 23.942-43.229 56.561-47.072 91.845-.448 4.118 2.526 7.819 6.644 8.269 4.119.455 7.82-2.527 8.268-6.644 7.195-66.061 62.781-115.877 129.296-115.877 15.404 0 30.188 2.699 43.913 7.636 12.753 14.913 16.076 35.375 8.645 53.56-8.374 20.496-31.861 30.357-52.356 21.983-15.63-6.388-23.151-24.3-16.765-39.93 2.323-5.687 6.722-10.128 12.386-12.506 5.665-2.377 11.914-2.409 17.603-.084 4.178 1.706 7.44 4.938 9.188 9.1s1.77 8.756.063 12.934c-1.215 2.972-3.514 5.292-6.474 6.535-3.819 1.604-5.615 5.999-4.012 9.818 1.604 3.82 6 5.617 9.818 4.012 6.654-2.793 11.822-8.011 14.553-14.692 3.222-7.887 3.18-16.557-.118-24.413-3.299-7.856-9.459-13.957-17.346-17.179-9.395-3.839-19.724-3.789-29.082.14s-16.626 11.267-20.465 20.662c-9.515 23.287 1.69 49.974 24.977 59.488 6.808 2.782 13.854 4.099 20.79 4.099 21.748-.001 42.404-12.949 51.125-34.293 6.399-15.659 6.606-32.628 1.136-47.896 37.44 22.86 62.485 64.105 62.485 111.091 0 71.718-58.347 130.064-130.064 130.064-27.933 0-53.969-8.821-75.298-23.955l-17.117-14.551c-.042-.035-.086-.064-.128-.098-19.869-20.087-33.286-46.707-36.689-76.694-.467-4.115-4.18-7.072-8.298-6.606-4.116.467-7.074 4.182-6.606 8.298 3.658 32.24 18.085 62.219 40.881 85.332.325.429.697.833 1.124 1.196l.416.353c1.565 1.54 3.168 3.049 4.809 4.525 3.64 3.274 7.43 6.339 11.342 9.205l121.223 103.053c1.41 1.2 3.137 1.786 4.854 1.786 2.124 0 4.234-.897 5.718-2.643 2.684-3.155 2.3-7.889-.856-10.571l-79.708-67.762c11.151 2.72 22.668 4.131 34.335 4.131 79.989 0 145.064-65.075 145.064-145.064s-65.077-145.064-145.066-145.064z"/></g></g></svg>