<svg id="Filled" height="512" viewBox="0 0 512 512" width="512" xmlns="http://www.w3.org/2000/svg"><rect fill="#2b70a8" height="464" rx="32" width="256" x="96" y="24"/><path d="m352 56v32h-256v-32a32 32 0 0 1 32-32h192a32 32 0 0 1 32 32z" fill="#c2c5c6"/><path d="m352 408v48a32 32 0 0 1 -32 32h-192a32 32 0 0 1 -32-32v-48z" fill="#c2c5c6"/><path d="m416 296v192h-56a80 80 0 0 1 -80-80h.16l-51.9-76.805a32 32 0 0 1 8.6-44.43 32 32 0 0 1 44.43 8.6l46.71 64.635h24v-192l60.235 112.941a32 32 0 0 1 3.765 15.059z" fill="#f5cbaa"/><path d="m128 120h192v64h-192z" fill="#a4d4f4"/><path d="m272 216h48v32h-48z" fill="#a4d4f4"/><circle cx="176" cy="56" r="8"/><path d="m216 64h56a8 8 0 0 0 0-16h-56a8 8 0 0 0 0 16z"/><path d="m416 496a8 8 0 0 0 8-8v-192a40.132 40.132 0 0 0 -4.706-18.823l-59.294-111.177v-110a40.045 40.045 0 0 0 -40-40h-192a40.045 40.045 0 0 0 -40 40v400a40.045 40.045 0 0 0 40 40h224l-.894-.447a88.613 88.613 0 0 0 8.894.447zm-8-200v184h-48a72.085 72.085 0 0 1 -71.984-70.485 8 8 0 0 0 -1.227-5.994l-51.895-76.8a24 24 0 0 1 39.772-26.874c.047.07.1.138.145.207l46.705 64.636a8 8 0 0 0 6.484 3.31h24a8 8 0 0 0 8-8v-160l45.177 84.706a24.1 24.1 0 0 1 2.823 11.294zm-64-128v184h-11.911l-44.24-61.226a40 40 0 0 0 -66.213 44.9l43.464 64.326h-161.1v-304h240zm-216-136h192a24.028 24.028 0 0 1 24 24v24h-240v-24a24.028 24.028 0 0 1 24-24zm0 448a24.028 24.028 0 0 1 -24-24v-40h168.383a88 88 0 0 0 37.111 64z"/><path d="m224 424a24 24 0 1 0 24 24 24.027 24.027 0 0 0 -24-24zm0 32a8 8 0 1 1 8-8 8.009 8.009 0 0 1 -8 8z"/><path d="m128 192h192a8 8 0 0 0 8-8v-64a8 8 0 0 0 -8-8h-192a8 8 0 0 0 -8 8v64a8 8 0 0 0 8 8zm8-64h176v48h-176z"/><path d="m224 144h-64a8 8 0 0 0 0 16h64a8 8 0 0 0 0-16z"/><path d="m128 224h112a8 8 0 0 0 0-16h-112a8 8 0 0 0 0 16z"/><path d="m240 240h-48a8 8 0 0 0 0 16h48a8 8 0 0 0 0-16z"/><path d="m128 288h48a8 8 0 0 0 0-16h-48a8 8 0 0 0 0 16z"/><path d="m128 320h48a8 8 0 0 0 0-16h-48a8 8 0 0 0 0 16z"/><circle cx="128" cy="376" r="8"/><circle cx="160" cy="376" r="8"/><circle cx="192" cy="376" r="8"/><path d="m128 352h64a8 8 0 0 0 0-16h-64a8 8 0 0 0 0 16z"/><path d="m320 208h-48a8 8 0 0 0 -8 8v32a8 8 0 0 0 8 8h48a8 8 0 0 0 8-8v-32a8 8 0 0 0 -8-8zm-8 32h-32v-16h32z"/><path d="m128 256h32a8 8 0 0 0 0-16h-32a8 8 0 0 0 0 16z"/></svg>