<svg height="512" viewBox="0 0 512 512" width="512" xmlns="http://www.w3.org/2000/svg"><g id="filled_outline" data-name="filled outline"><path d="m381.054 152-25.371-63.426a22 22 0 0 1 8.223-26.474l.568-.378a102 102 0 0 1 113.159 0l.568.378a22 22 0 0 1 8.223 26.476l-25.37 63.424z" fill="#ffb3b3"/><path d="m413.045 160a8 8 0 0 1 -7.836-6.433l-8-40a8 8 0 1 1 15.689-3.138l8 40a8 8 0 0 1 -6.275 9.414 8.118 8.118 0 0 1 -1.578.157z" fill="#faa6b2"/><path d="m429.062 160a8.126 8.126 0 0 1 -1.578-.157 8 8 0 0 1 -6.275-9.414l8-40a8 8 0 1 1 15.689 3.138l-8 40a8 8 0 0 1 -7.836 6.433z" fill="#faa6b2"/><circle cx="144" cy="368" fill="#0bafea" r="104"/><path d="m239.68 408.81a103.734 103.734 0 0 1 -8.02 15.19h-175.32a103.734 103.734 0 0 1 -8.02-15.19z" fill="#0276b4"/><path d="m421.054 488a24 24 0 0 1 -24-24v-168h48v168a24 24 0 0 1 -24 24z" fill="#683b0d"/><path d="m397.05 296h48v16h-48z" fill="#683b0d"/><path d="m445.054 296h-48l-3.449-17.243a646.348 646.348 0 0 1 -12.551-126.757h80a646.272 646.272 0 0 1 -12.554 126.757z" fill="#eaeae8"/><path d="m453.054 224h-24a8 8 0 0 1 0-16h24a8 8 0 0 1 0 16z" fill="#fbfdff"/><path d="m296 392h64v96h-64z" fill="#ea9d2d"/><path d="m296 360h64v32h-64z" fill="#fbb540"/><path d="m352 360h-48v-90.126a10 10 0 0 1 13.162-9.487l15.692 5.231a28 28 0 0 1 19.146 26.563z" fill="#d32b39"/><path d="m239.68 408.81a103.734 103.734 0 0 1 -8.02 15.19h-175.32a103.734 103.734 0 0 1 -8.02-15.19z" fill="#0276b4"/><g fill="#eaeae8"><circle cx="144" cy="368" r="72"/><path d="m185.97 309.5-88.88 113.12a72.054 72.054 0 0 1 -19.67-27.18l74.27-99.03a71.544 71.544 0 0 1 34.28 13.09z"/><path d="m214.45 353.09-59.05 75.16a8 8 0 1 1 -12.58-9.88l65.31-83.12a70.882 70.882 0 0 1 6.32 17.84z"/></g><path d="m24 424h240a0 0 0 0 1 0 0v4a60 60 0 0 1 -60 60h-120a60 60 0 0 1 -60-60v-4a0 0 0 0 1 0 0z" fill="#0bafea"/><path d="m185.97 309.5-88.88 113.12a72.054 72.054 0 0 1 -19.67-27.18l74.27-99.03a71.544 71.544 0 0 1 34.28 13.09z" fill="#fbfdff"/><path d="m214.45 353.09-59.05 75.16a7.993 7.993 0 0 1 -11.23 1.35c-3.48-2.73-10.04-.081-7.31-3.551l71.27-90.8a70.882 70.882 0 0 1 6.32 17.841z" fill="#fbfdff"/><path d="m280 96a50.6 50.6 0 0 1 -32 32l12.82 8.547a50.6 50.6 0 0 1 17.189 19.471l1.991 3.982 1.991-3.982a50.6 50.6 0 0 1 17.189-19.471l12.82-8.547a50.6 50.6 0 0 1 -32-32z" fill="#fbb540"/><path d="m192 144a50.6 50.6 0 0 1 -32 32l12.82 8.547a50.6 50.6 0 0 1 17.189 19.471l1.991 3.982 1.991-3.982a50.6 50.6 0 0 1 17.189-19.471l12.82-8.547a50.6 50.6 0 0 1 -32-32z" fill="#fbb540"/><path d="m224 24a50.6 50.6 0 0 1 -32 32l12.82 8.547a50.6 50.6 0 0 1 17.189 19.471l1.991 3.982 1.991-3.982a50.6 50.6 0 0 1 17.189-19.471l12.82-8.547a50.6 50.6 0 0 1 -32-32z" fill="#fbb540"/><rect fill="#0276b4" height="32" rx="16" width="80" x="104" y="424"/><path d="m304 344h48v16h-48z" fill="#961b20"/><path d="m397.05 296h48v16h-48z" fill="#533222"/><path d="m453.054 464v-167.208l3.293-16.466a655.8 655.8 0 0 0 12.7-126.762l24.808-62.018a30.136 30.136 0 0 0 -11.213-36.1l-.569-.379a109.712 109.712 0 0 0 -122.033 0l-.568.379a30.134 30.134 0 0 0 -11.213 36.1l24.807 62.019a655.78 655.78 0 0 0 12.7 126.761l3.293 16.467v167.207a32 32 0 0 0 64 0zm-66.584-320-23.359-58.4a14.063 14.063 0 0 1 5.233-16.848l.568-.379a93.757 93.757 0 0 1 104.283 0l.569.379a14.065 14.065 0 0 1 5.236 16.848l-23.362 58.4h-16.826l6.086-30.431a8 8 0 1 0 -15.689-3.138l-6.709 33.569h-2.883l-6.717-33.569a8 8 0 1 0 -15.689 3.138l6.089 30.431zm50.584 320a16 16 0 0 1 -32 0v-160h32zm1.446-176h-34.888l-2.162-10.812a639.914 639.914 0 0 1 -12.35-117.188h63.9q-.3 24.012-2.428 48h-21.518a8 8 0 0 0 0 16h19.91q-3.037 26.775-8.307 53.188z"/><path d="m335.384 258.028-15.692-5.228a18 18 0 0 0 -23.692 17.074v82.126a8 8 0 0 0 -8 8v128a8 8 0 0 0 8 8h64a8 8 0 0 0 8-8v-128a8 8 0 0 0 -8-8v-59.818a35.958 35.958 0 0 0 -24.616-34.154zm-23.384 11.846a2 2 0 0 1 2.633-1.9l15.691 5.23a19.976 19.976 0 0 1 13.676 18.978v59.818h-32zm40 210.126h-48v-80h48zm0-96h-48v-16h48z"/><path d="m16 424v4a68.077 68.077 0 0 0 68 68h120a68.077 68.077 0 0 0 68-68v-4a8 8 0 0 0 -8-8h-18.8a112 112 0 1 0 -202.4 0h-18.8a8 8 0 0 0 -8 8zm128-152a96.009 96.009 0 0 1 83.145 144h-19.118a80.013 80.013 0 1 0 -128.027 0h-19.145a96.009 96.009 0 0 1 83.145-144zm11.243 33.009a63.512 63.512 0 0 1 18.919 6.563l-77.848 99.08a64.008 64.008 0 0 1 -9.634-14.225zm-74.495 72.66a63.892 63.892 0 0 1 54.822-73.1zm106.474-56.821a64.281 64.281 0 0 1 15.371 21.452s-57.485 73.251-57.717 73.7h-32.416zm-67.222 111.152h48a8 8 0 0 1 0 16h-48a8 8 0 0 1 0-16zm45.032-16 42.656-54.29c.2 2.071.312 4.167.312 6.29a63.7 63.7 0 0 1 -21.688 48zm-67.656 16a23.992 23.992 0 0 0 22.624 32h48a23.991 23.991 0 0 0 22.626-31.993l.033-.007h65.189a52.069 52.069 0 0 1 -51.848 48h-120a52.069 52.069 0 0 1 -51.848-48z"/><path d="m243.562 134.656 12.821 8.547a42.668 42.668 0 0 1 14.471 16.397l1.991 3.982a8 8 0 0 0 14.31 0l1.991-3.982a42.668 42.668 0 0 1 14.471-16.4l12.821-8.547a8 8 0 0 0 -1.908-14.246 42.8 42.8 0 0 1 -26.94-26.94 8 8 0 0 0 -15.18 0 42.8 42.8 0 0 1 -26.94 26.94 8 8 0 0 0 -1.908 14.246zm36.438-21.089a59.174 59.174 0 0 0 15.991 15.491l-1.249.833a58.666 58.666 0 0 0 -14.742 14.097 58.65 58.65 0 0 0 -14.742-14.1l-1.249-.833a59.174 59.174 0 0 0 15.991-15.488z"/><path d="m226.53 168.41a42.8 42.8 0 0 1 -26.94-26.94 8 8 0 0 0 -15.18 0 42.8 42.8 0 0 1 -26.94 26.94 8 8 0 0 0 -1.908 14.246l12.821 8.547a42.668 42.668 0 0 1 14.471 16.397l1.991 3.982a8 8 0 0 0 14.31 0l1.991-3.982a42.668 42.668 0 0 1 14.471-16.4l12.821-8.547a8 8 0 0 0 -1.908-14.246zm-19.788 9.481a58.666 58.666 0 0 0 -14.742 14.097 58.65 58.65 0 0 0 -14.742-14.1l-1.249-.833a59.174 59.174 0 0 0 15.991-15.488 59.174 59.174 0 0 0 15.991 15.491z"/><path d="m247.617 71.2 12.821-8.547a8 8 0 0 0 -1.908-14.243 42.8 42.8 0 0 1 -26.94-26.94 8 8 0 0 0 -15.18 0 42.8 42.8 0 0 1 -26.94 26.94 8 8 0 0 0 -1.908 14.246l12.821 8.544a42.668 42.668 0 0 1 14.471 16.4l1.991 3.982a8 8 0 0 0 14.31 0l1.991-3.982a42.668 42.668 0 0 1 14.471-16.4zm-23.617.788a58.65 58.65 0 0 0 -14.742-14.1l-1.249-.833a59.174 59.174 0 0 0 15.991-15.488 59.174 59.174 0 0 0 15.991 15.491l-1.249.833a58.666 58.666 0 0 0 -14.742 14.097z"/></g></svg>