<svg id="Filled" height="512" viewBox="0 0 512 512" width="512" xmlns="http://www.w3.org/2000/svg"><path d="m328 224h112v112h-112z" fill="#3397e8"/><path d="m384 336h112v112h-112z" fill="#ffb632"/><circle cx="384" cy="280" fill="#e9eef2" r="24"/><path d="m272 336h112v112h-112z" fill="#35a872"/><path d="m304 368h48v48h-48z" fill="#e9eef2"/><path d="m440 224h-112l56-80z" fill="#eb423f"/><path d="m464 416h-48l24-48z" fill="#e9eef2"/><path d="m56 384a40.005 40.005 0 0 1 -39.91-37.33q.18-5.625.77-10.98c8.34-76.95 76.4-111.69 159.14-111.69s150.8 34.74 159.14 111.69q.585 5.355.77 10.98a40.005 40.005 0 0 1 -39.91 37.33z" fill="#95573a"/><ellipse cx="176" cy="360" fill="#a36f58" rx="80" ry="112"/><circle cx="272" cy="72" fill="#95573a" r="48"/><circle cx="80" cy="72" fill="#95573a" r="48"/><ellipse cx="176" cy="160" fill="#ad6643" rx="120" ry="112"/><ellipse cx="96" cy="424" fill="#7a4830" rx="56" ry="64"/><ellipse cx="256" cy="424" fill="#7a4830" rx="56" ry="64"/><path d="m175.91 240c35.29 0 64-23.327 64-52a8 8 0 0 0 -16 0c0 17.806-17.329 32.625-40 35.49v-25.39a18.079 18.079 0 0 0 2.428-1.459l13.577-9.689a19.373 19.373 0 0 0 7.994-15.794c0-10.562-8.264-19.155-18.422-19.155h-27.155c-10.158 0-18.422 8.593-18.422 19.155a19.373 19.373 0 0 0 7.994 15.794l13.577 9.689a17.986 17.986 0 0 0 2.429 1.459v25.39c-22.671-2.865-40-17.684-40-35.49a8 8 0 0 0 -16 0c0 28.673 28.71 52 64 52zm-14.71-66.074a3.407 3.407 0 0 1 -1.288-2.771c0-1.71 1.11-3.155 2.422-3.155h27.156c1.313 0 2.422 1.445 2.422 3.155a3.408 3.408 0 0 1 -1.289 2.771l-13.577 9.688a1.859 1.859 0 0 1 -2.269 0z"/><circle cx="223.91" cy="144" r="8"/><circle cx="127.91" cy="144" r="8"/><path d="m384 312a32 32 0 1 0 -32-32 32.036 32.036 0 0 0 32 32zm0-48a16 16 0 1 1 -16 16 16.019 16.019 0 0 1 16-16z"/><path d="m496 328h-48v-104a7.957 7.957 0 0 0 -1.45-4.585l-56-80a8 8 0 0 0 -13.108 0l-56 80a7.957 7.957 0 0 0 -1.442 4.585v50.063c-10.955-14.728-25.571-26.948-43.618-36.374 17.818-20.944 27.528-48.158 27.528-77.689a126.381 126.381 0 0 0 -5.867-38.468 56 56 0 1 0 -76.12-74.785 152.28 152.28 0 0 0 -46.013-6.747 152.242 152.242 0 0 0 -46.01 6.748 56 56 0 1 0 -76.121 74.784 126.381 126.381 0 0 0 -5.869 38.468c0 29.531 9.714 56.746 27.529 77.689-38.948 20.342-61.912 53.705-66.623 97.139-.01.1-.02.2-.027.3l-.769 10.982a7.69 7.69 0 0 0 0 1.084 48.1 48.1 0 0 0 31.946 42.068 78.657 78.657 0 0 0 -7.966 34.738c0 39.7 28.71 72 64 72 19 0 36.083-9.372 47.815-24.212a67.177 67.177 0 0 0 64.37 0c11.732 14.84 28.815 24.212 47.815 24.212 25.076 0 46.817-16.316 57.309-40h182.691a8 8 0 0 0 8-8v-112a8 8 0 0 0 -8-8zm-112-170.05 40.635 58.05h-81.27zm-48 74.05h96v96h-89.917a130.231 130.231 0 0 0 -6.083-24zm-8.92 104.4.72 10.253a32.064 32.064 0 0 1 -24.8 28.547c-10.029-12.215-23.76-20.512-39.169-22.638-1.457-32.539-12.425-62.563-30.345-83.583a116.946 116.946 0 0 0 31.047-19.324c36.645 17.554 58.237 47.437 62.547 86.745zm-55.17-304.4a40 40 0 0 1 20.18 74.544 111.67 111.67 0 0 0 -22.4-31.444 115.713 115.713 0 0 0 -32.737-22.546 40.089 40.089 0 0 1 34.957-20.554zm-232 40a40 40 0 0 1 74.961-19.446 115.682 115.682 0 0 0 -32.737 22.546 111.642 111.642 0 0 0 -22.4 31.443 40.09 40.09 0 0 1 -19.824-34.543zm24 88c0-28.722 10.456-54.821 29.443-73.492 20.296-19.958 48.847-30.508 82.557-30.508s62.261 10.55 82.558 30.509c18.986 18.67 29.442 44.769 29.442 73.491s-10.456 54.821-29.442 73.491c-20.297 19.959-48.845 30.509-82.558 30.509s-62.261-10.55-82.557-30.508c-18.987-18.671-29.443-44.77-29.443-73.492zm-39.889 186.657.718-10.254c4.311-39.312 25.9-69.195 62.547-86.751a116.968 116.968 0 0 0 31.195 19.386c-17.867 21.026-28.847 51.138-30.312 83.52-15.423 2.128-29.169 10.442-39.198 22.672a32.063 32.063 0 0 1 -24.95-28.573zm71.979 133.343c-26.468 0-48-25.121-48-56s21.532-56 48-56 48 25.121 48 56-21.532 56-48 56zm80-16a51.7 51.7 0 0 1 -23.68-5.83 78.736 78.736 0 0 0 7.68-34.17c0-36.578-24.377-66.851-55.812-71.39 1.538-31.2 12.747-59.72 30.746-77.876a154.918 154.918 0 0 0 40.976 5.266 154.862 154.862 0 0 0 41.111-5.3c18.056 18.151 29.265 46.558 30.794 77.912-31.436 4.535-55.815 34.808-55.815 71.388a78.736 78.736 0 0 0 7.68 34.17 51.7 51.7 0 0 1 -23.68 5.83zm80 16c-26.468 0-48-25.121-48-56s21.532-56 48-56 48 25.121 48 56-21.532 56-48 56zm56.007-90.794a48.3 48.3 0 0 0 19.634-13.206h12.359v32h-25.613a77.169 77.169 0 0 0 -6.38-18.794zm63.993 50.794h-57.613a80.464 80.464 0 0 0 1.613-16h32a8 8 0 0 0 8-8v-48a8 8 0 0 0 -8-8h-10.843a47.615 47.615 0 0 0 2.646-12.806 8 8 0 0 0 0-1.084l-.148-2.11h32.345zm112 0h-96v-96h96z"/><path d="m416 424h48a8 8 0 0 0 7.155-11.578l-24-48a8 8 0 0 0 -14.31 0l-24 48a8 8 0 0 0 7.155 11.578zm24-38.111 11.056 22.111h-22.112z"/></svg>