<svg id="Capa_1" enable-background="new 0 0 511.999 511.999" height="512" viewBox="0 0 511.999 511.999" width="512" xmlns="http://www.w3.org/2000/svg"><g><g><path d="m495.135 278.462h-20.827c-7.299 0-13.271-5.972-13.271-13.271v-22.154c0-1.536.279-3.005.767-4.379-.313-.071-.623-.149-.939-.213l-74.408-15.179c-2.487-.507-4.878-1.359-7.12-2.506v10.89c0 7.09-5.801 12.891-12.891 12.891h-11.268c-7.09 0-12.891-5.801-12.891-12.891v-11.268c0-7.09 5.801-12.89 12.891-12.89h7.527l-47.762-41.131c-10.316-8.884-22.622-15.144-35.888-18.203-35.378-8.157-109.66-18.858-190.077 8.359-18.077 6.118-33.566 18.157-43.893 34.206l-25.454 39.556c-1.692 2.63-3.138 5.394-4.33 8.256l-4.049 32.39v12.587c0 4.681.624 9.341 1.855 13.857l3.319 15.174h478.756v-32.069c.002-.676-.016-1.345-.047-2.012z" fill="#ff4756"/><g><path d="m46.253 282.026v-10.901c0-1.551.092-3.101.275-4.64l3.008-25.292c.635-5.335 2.285-10.511 5.045-15.037.017-.028.034-.055.051-.083l25.454-41.577c10.327-16.869 25.816-29.523 43.893-35.954 4.269-1.519 8.519-2.918 12.749-4.219-15.485 2.737-31.491 6.688-47.749 12.191-18.077 6.118-33.566 18.157-43.893 34.206l-25.454 39.556c-1.692 2.63-3.138 5.394-4.33 8.256l-4.049 32.39v12.587c0 4.681.624 9.341 1.855 13.857l3.319 15.174h35l-3.319-15.949c-1.231-4.746-1.855-9.645-1.855-14.565z" fill="#fc2d39"/></g><path d="m495.559 309.54c-104.851 0-443.21 0-479.131 0-4.934 0-8.934 4-8.934 8.934v8.111c0 4.934 4 8.934 8.934 8.934h479.131c4.934 0 8.934-4 8.934-8.934v-8.111c0-4.934-4-8.934-8.934-8.934z" fill="#dfebfa"/><path d="m157.827 326.586v-8.111c0-4.934 4-8.934 8.934-8.934-75.181 0-136.193 0-150.333 0-4.934 0-8.934 4-8.934 8.934v8.111c0 4.934 4 8.934 8.934 8.934h150.333c-4.934 0-8.934-4-8.934-8.934z" fill="#b1dbfc"/><path d="m461.253 238.533c-.773 1.681-1.217 3.541-1.217 5.503v22.154c0 7.299 5.972 13.271 13.271 13.271h21.853c-.461-19.817-14.468-36.776-33.907-40.928z" fill="#ffd301"/><path d="m26.292 238.533h-10.99c-2.66 6.388-4.049 13.267-4.049 20.248v12.143h15.039c7.09 0 12.89-5.801 12.89-12.89v-6.609c.001-7.091-5.8-12.892-12.89-12.892z" fill="#ffd301"/><path d="m342.288 231.649v-6.3l-44.869-38.639c-7.012-6.039-15.448-10.321-24.396-12.384-33.964-7.83-101.919-17.252-175.435 7.627-12.319 4.169-22.954 12.458-29.941 23.336-1.116 1.737-.761 4.038.796 5.394l30.787 26.819c.763.665 1.742 1.031 2.754 1.031h242.325c-1.272-1.996-2.021-4.355-2.021-6.884z" fill="#23a8fe"/><path d="m93.719 204.847c-1.556-1.64-1.911-4.424-.796-6.524 4.222-7.951 9.783-14.747 16.237-20.003-3.841 1.126-7.696 2.322-11.572 3.634-12.319 4.169-22.954 12.458-29.941 23.336-1.115 1.737-.761 4.038.796 5.394l30.787 26.819c.763.665 1.741 1.031 2.754 1.031h25.276c-1.012 0-1.991-.443-2.754-1.248z" fill="#0193fa"/><path d="m366.447 206.49h-11.268c-7.659 0-13.891 6.231-13.891 13.891v11.268c0 7.659 6.231 13.891 13.891 13.891h11.268c7.659 0 13.891-6.231 13.891-13.891v-11.268c-.001-7.659-6.232-13.891-13.891-13.891z" fill="#dfebfa"/><path d="m360.813 231.649v-11.268c0-6.222 4.113-11.502 9.762-13.264-1.305-.407-2.691-.626-4.128-.626h-11.268c-7.659 0-13.891 6.231-13.891 13.891v11.268c0 7.659 6.231 13.891 13.891 13.891h11.268c1.437 0 2.823-.219 4.128-.626-5.65-1.764-9.762-7.044-9.762-13.266z" fill="#b1dbfc"/><path d="m129.135 173.202 11.08 65.331h90.714v-71.028c-28.255-2.771-63.634-2.697-101.794 5.697z" fill="#60b8fe"/><circle cx="85.289" cy="322.221" fill="#665e68" r="51.298"/><path d="m61.64 322.221c0-23.539 15.861-43.361 37.474-49.398-4.4-1.229-9.032-1.9-13.824-1.9-28.331 0-51.298 22.967-51.298 51.298s22.967 51.298 51.298 51.298c4.792 0 9.425-.671 13.824-1.9-21.613-6.037-37.474-25.859-37.474-49.398z" fill="#554e56"/><circle cx="85.289" cy="322.221" fill="#dfebfa" r="25.649"/><path d="m87.289 322.221c0-9.073 4.715-17.04 11.824-21.599-3.99-2.559-8.732-4.05-13.824-4.05-14.166 0-25.649 11.483-25.649 25.649s11.483 25.649 25.649 25.649c5.092 0 9.834-1.49 13.824-4.05-7.109-4.559-11.824-12.526-11.824-21.599z" fill="#b1dbfc"/><circle cx="405.791" cy="322.221" fill="#665e68" r="51.298"/><path d="m382.142 322.221c0-23.539 15.861-43.361 37.474-49.398-4.4-1.229-9.032-1.9-13.824-1.9-28.331 0-51.298 22.967-51.298 51.298s22.967 51.298 51.298 51.298c4.792 0 9.425-.671 13.824-1.9-21.614-6.037-37.474-25.859-37.474-49.398z" fill="#554e56"/><circle cx="405.791" cy="322.221" fill="#dfebfa" r="25.649"/><path d="m407.791 322.221c0-9.073 4.715-17.04 11.824-21.599-3.99-2.559-8.732-4.05-13.824-4.05-14.166 0-25.649 11.483-25.649 25.649s11.483 25.649 25.649 25.649c5.092 0 9.834-1.49 13.824-4.05-7.109-4.559-11.824-12.526-11.824-21.599z" fill="#b1dbfc"/></g><g fill="#050402"><path d="m404.992 288.798c-18.278 0-33.148 14.871-33.148 33.149s14.87 33.149 33.148 33.149 33.149-14.871 33.149-33.149c.001-18.278-14.87-33.149-33.149-33.149zm0 51.298c-10.007 0-18.148-8.142-18.148-18.149 0-10.008 8.142-18.149 18.148-18.149 10.008 0 18.149 8.142 18.149 18.149.001 10.008-8.141 18.149-18.149 18.149z"/><path d="m85.295 288.798c-18.278 0-33.149 14.871-33.149 33.149s14.871 33.149 33.149 33.149 33.149-14.871 33.149-33.149-14.871-33.149-33.149-33.149zm0 51.298c-10.008 0-18.149-8.142-18.149-18.149 0-10.008 8.142-18.149 18.149-18.149s18.149 8.142 18.149 18.149c0 10.008-8.141 18.149-18.149 18.149z"/><path d="m0 318.2v8.111c0 9.062 7.372 16.434 16.435 16.434h13.874c8.42 22.184 29.886 38 54.986 38s46.567-15.815 54.986-38h73.153c4.143 0 7.5-3.358 7.5-7.5s-3.357-7.5-7.5-7.5h-69.628c.367-3.717.373-7.405.059-10.98h202.557c-.31 3.521-.312 7.26.06 10.98h-98.047c-4.143 0-7.5 3.358-7.5 7.5s3.357 7.5 7.5 7.5h101.571c8.42 22.184 29.886 38 54.986 38 25.101 0 46.567-15.815 54.987-38h35.586c9.062 0 16.434-7.372 16.434-16.434v-8.111c0-6.507-3.811-12.126-9.31-14.787v-23.216c0-23.738-16.569-44.533-40.319-49.375l-74.41-15.18c-.585-.119-1.164-.276-1.74-.448-2.208-8.874-10.22-15.477-19.767-15.477h-.957l-22.97-19.781c-3.14-2.703-7.875-2.35-10.577.789-2.703 3.139-2.351 7.874.788 10.577l12.674 10.914c-3.564 1.955-6.496 5.007-8.313 8.487l-34.777-29.949c-7.93-6.83-17.476-11.674-27.606-14.009-57.236-13.197-121.434-11.828-179.524 7.832-13.924 4.713-25.944 14.083-33.848 26.387-3.101 4.828-2.162 11.32 2.18 15.102l30.785 26.816c2.128 1.856 4.856 2.878 7.683 2.878h238.759c3.804 3.818 8.951 6.007 14.437 6.007h11.269c11.213 0 20.391-9.118 20.391-20.391v-.651l65.699 13.403v21.791c0 11.453 9.318 20.771 20.771 20.771h14.375v15.078h-27.454c-8.444-23.2-30.558-38.617-55.243-38.617-24.583 0-46.765 15.327-55.242 38.617h-209.216c-8.489-23.326-30.7-38.617-55.242-38.617-24.547 0-46.755 15.296-55.242 38.617h-7.89l-1.813-6.646c-1.056-3.872-1.591-7.87-1.591-11.883v-5.087h7.539c11.243 0 20.39-9.147 20.39-20.391v-6.609c0-10.665-8.233-19.428-18.675-20.304l23.385-36.34c9.351-14.531 23.554-25.598 39.991-31.161 78.038-26.412 150.023-16.446 185.987-8.155 10.57 2.438 20.332 7.018 29.013 13.613 3.299 2.507 8.004 1.863 10.509-1.434 2.506-3.298 1.864-8.003-1.435-10.509-10.382-7.889-22.063-13.368-34.718-16.286-37.512-8.649-112.617-19.037-194.165 8.563-19.642 6.647-36.615 19.876-47.796 37.251l-25.454 39.556c-6.22 9.667-9.571 21.008-9.571 32.562v12.143 12.587c0 5.346.713 10.672 2.119 15.83l1.485 5.443c-4.432 2.944-7.363 7.979-7.363 13.689zm292.531-126.081 42.263 36.395v2.245h-96.359v-55.156c12.953 1.595 24.108 3.728 32.91 5.757 7.768 1.79 15.093 5.511 21.186 10.759zm-216.937 14.568c11.219-15.387 26.3-19.379 47.487-24.637l8.261 48.709h-28.114zm70.962 24.072-8.812-51.957c44.867-8.754 79.098-4.779 85.69-4.703v56.66zm219.897 6.007h-11.269c-3.167 0-5.391-2.685-5.391-5.391 0-4.162 0-7.114 0-11.268 0-2.972 2.418-5.391 5.391-5.391h11.269c2.973 0 5.391 2.418 5.391 5.391v11.268c0 2.972-2.418 5.391-5.391 5.391zm38.539 128.979c-24.34 0-43.798-19.854-43.798-43.798 0-23.841 19.39-43.798 43.798-43.798 24.447 0 43.799 19.989 43.799 43.798 0 23.958-19.487 43.798-43.799 43.798zm62.551-99.828v-17.643c9.498 4.558 16.539 13.192 19.093 23.414h-13.321c-3.183 0-5.772-2.589-5.772-5.771zm27.646 50.849h.376c.79 0 1.434.644 1.434 1.435v8.111c0 .791-.644 1.434-1.434 1.434h-32.062c.381-3.813.363-7.53.06-10.98zm-409.894 48.979c-24.34 0-43.798-19.854-43.798-43.798 0-24.119 19.649-43.798 43.798-43.798 24.088 0 43.798 19.617 43.798 43.798 0 24.017-19.534 43.798-43.798 43.798zm-58.57-48.979c-.316 3.596-.302 7.359.06 10.98h-10.35c-.791 0-1.435-.644-1.435-1.434v-8.112c0-.791.644-1.435 1.435-1.435h10.29zm4.963-65.617v6.609c0 2.972-2.418 5.391-5.39 5.391h-7.538c.135-2.749-.612-9.1 1.834-17.39h5.705c2.972 0 5.389 2.418 5.389 5.39z"/><path d="m262.624 274.156c4.143 0 7.5-3.358 7.5-7.5s-3.357-7.5-7.5-7.5h-9.399c-4.143 0-7.5 3.358-7.5 7.5s3.357 7.5 7.5 7.5z"/><path d="m168.631 274.156c4.143 0 7.5-3.358 7.5-7.5s-3.357-7.5-7.5-7.5h-9.399c-4.143 0-7.5 3.358-7.5 7.5s3.357 7.5 7.5 7.5z"/></g></g></svg>