<?xml version="1.0" encoding="iso-8859-1"?>
<!-- Generator: Adobe Illustrator 19.0.0, SVG Export Plug-In . SVG Version: 6.00 Build 0)  -->
<svg version="1.1" id="Capa_1" xmlns="http://www.w3.org/2000/svg" xmlns:xlink="http://www.w3.org/1999/xlink" x="0px" y="0px"
	 viewBox="0 0 511.999 511.999" style="enable-background:new 0 0 511.999 511.999;" xml:space="preserve">
<g>
	<rect x="93.971" y="34.109" style="fill:#75462E;" width="17.055" height="93.801"/>
	<rect x="162.19" y="34.109" style="fill:#75462E;" width="17.055" height="93.801"/>
</g>
<g>
	<rect x="93.971" y="34.109" style="fill:#5E3825;" width="17.055" height="25.582"/>
	<rect x="162.19" y="34.109" style="fill:#5E3825;" width="17.055" height="25.582"/>
</g>
<g>
	<path style="fill:#4398D1;" d="M85.452,8.527H187.78c9.423,0,17.055,7.632,17.055,17.055l0,0c0,9.423-7.632,17.055-17.055,17.055
		H85.452c-9.423,0-17.055-7.632-17.055-17.055l0,0C68.397,16.159,76.038,8.527,85.452,8.527z"/>
	<path style="fill:#4398D1;" d="M42.815,119.383h187.602c18.837,0,34.109,15.273,34.109,34.109v272.876
		c0,18.837-15.273,34.109-34.109,34.109H42.815c-18.837,0-34.109-15.272-34.109-34.109V153.493
		C8.706,134.656,23.978,119.383,42.815,119.383z"/>
</g>
<g>
	<path style="fill:#3E8CC7;" d="M239.183,120.662C202.848,310.004,79.551,392.421,8.706,424.808v1.561
		c0,18.837,15.273,34.109,34.109,34.109h187.602c18.837,0,34.109-15.272,34.109-34.109V153.493
		C264.501,138.067,254.098,124.593,239.183,120.662z"/>
	<circle style="fill:#3E8CC7;" cx="38.551" cy="481.796" r="21.318"/>
</g>
<g>
	<rect x="102.498" y="162.02" style="fill:#126099;" width="17.055" height="247.294"/>
	<rect x="51.334" y="162.02" style="fill:#126099;" width="17.055" height="247.294"/>
	<rect x="153.662" y="162.02" style="fill:#126099;" width="17.055" height="247.294"/>
	<rect x="204.827" y="162.02" style="fill:#126099;" width="17.055" height="247.294"/>
</g>
<circle style="fill:#3E8CC7;" cx="234.681" cy="481.796" r="21.318"/>
<path style="fill:#DE4C3C;" d="M503.293,255.821v170.547c0,18.837-15.272,34.109-34.109,34.109H170.726
	c-18.837,0-34.109-15.272-34.109-34.109V255.821c0-18.837,15.273-34.109,34.109-34.109h298.458
	C488.02,221.711,503.293,236.984,503.293,255.821z"/>
<path style="fill:#75462E;" d="M392.437,221.711v-34.109c0-18.837-15.273-34.109-34.109-34.109h-76.746
	c-18.837,0-34.109,15.273-34.109,34.109v34.109h34.109v-34.109h76.746v34.109H392.437z"/>
<g>
	<circle style="fill:#DE4C3C;" cx="166.462" cy="481.796" r="21.318"/>
	<circle style="fill:#DE4C3C;" cx="473.439" cy="481.796" r="21.318"/>
</g>
<polygon style="fill:#87CED9;" points="85.452,238.766 8.706,272.876 8.706,221.711 68.397,196.129 "/>
<path style="fill:#CF4737;" d="M489.436,228.533c-61.525,122.453-233.539,199.745-319.563,231.859c0.29,0,0.563,0.085,0.853,0.085
	h298.458c18.837,0,34.109-15.272,34.109-34.109V255.821C503.267,245.042,498.125,234.912,489.436,228.533z"/>
<polygon style="fill:#3E8CC7;" points="264.527,315.512 307.163,255.821 349.8,315.512 "/>
<g>
	<rect x="179.244" y="221.711" style="fill:#75462E;" width="34.109" height="238.766"/>
	<rect x="426.538" y="221.711" style="fill:#75462E;" width="34.109" height="238.766"/>
</g>
<ellipse transform="matrix(-0.9504 -0.3111 0.3111 -0.9504 715.9544 866.5873)" style="fill:#87CED9;" cx="427.089" cy="376.195" rx="42.621" ry="34.093"/>
<polygon style="fill:#FDB62F;" points="136.616,298.458 136.616,341.095 221.89,392.259 238.945,358.149 "/>
<path style="fill:#71C4D1;" d="M454.482,352.888c-15.767,18.504-35.227,33.504-57.133,44.044
	c5.483,5.278,12.092,9.252,19.332,11.614c22.384,7.325,45.272-1.245,51.164-19.152C471.375,375.63,466.062,361.117,454.482,352.888z
	"/>
<rect x="102.498" y="162.02" width="17.055" height="247.294"/>
<path d="M469.183,213.184h-68.219v-25.582c-0.026-23.536-19.101-42.611-42.637-42.637h-76.746c-3.121,0.017-6.233,0.384-9.278,1.083
	c-3.607-20.321-21.25-35.15-41.886-35.192h-51.164V51.164h8.527c14.13,0,25.582-11.452,25.582-25.582S201.91,0,187.78,0H85.452
	C71.322,0,59.87,11.452,59.87,25.582s11.452,25.582,25.582,25.582h8.527v59.692H42.815c-23.536,0.026-42.611,19.101-42.637,42.637
	v272.876c0.034,13.524,6.506,26.23,17.438,34.203c-11.87,11.503-12.177,30.451-0.674,42.321
	c11.503,11.87,30.451,12.177,42.321,0.674c9.286-8.988,11.751-22.93,6.106-34.561h74.188c-1.927,3.991-2.933,8.357-2.942,12.791
	c0,16.483,13.362,29.846,29.846,29.846s29.846-13.362,29.846-29.846l0,0c-0.026-4.434-1.049-8.809-2.993-12.791h14.497
	c-1.936,3.982-2.959,8.357-2.976,12.791c0,16.483,13.362,29.846,29.846,29.846s29.846-13.362,29.846-29.846l0,0
	c-0.026-4.434-1.049-8.809-2.993-12.791h185.044c-1.936,3.982-2.959,8.357-2.976,12.791c-0.026,16.483,13.311,29.863,29.795,29.897
	c16.483,0.026,29.863-13.311,29.897-29.795c0.009-8.016-3.198-15.699-8.911-21.318c10.932-7.973,17.404-20.679,17.438-34.203
	V255.821C511.795,232.285,492.719,213.21,469.183,213.184z M435.074,451.95v-32.404c5.577-0.154,11.094-1.194,16.347-3.087
	c0.256-0.094,0.46-0.247,0.708-0.35v35.841H435.074z M221.89,451.95v-51.164c0.81,0,1.612-0.111,2.388-0.341
	c2.285-0.665,4.178-2.251,5.244-4.375l17.055-34.109c2.012-4.025,0.554-8.911-3.334-11.179l-21.353-12.45V230.239h196.129v102.627
	c-5.074,0.264-10.088,1.271-14.872,2.976c-19.997,6.447-30.98,27.884-24.533,47.881c1.228,3.803,3.044,7.385,5.381,10.617
	c7.197,10.617,17.78,18.479,30.025,22.308c1.322,0.435,2.669,0.64,3.999,0.972v34.331H221.89z M170.726,230.239v78.247
	l-25.582-14.923v-37.742C145.144,241.691,156.596,230.239,170.726,230.239z M218.377,380.21l-73.233-43.942v-22.964l82.605,48.188
	L218.377,380.21z M204.835,328.38l-17.055-9.951v-88.19h17.055V328.38z M145.144,356.154l25.582,15.349v80.447
	c-14.13,0-25.582-11.452-25.582-25.582V356.154z M187.78,381.736l17.532,10.523h-0.478v59.692H187.78V381.736z M349.8,213.184
	h-59.692v-17.055H349.8V213.184z M419.324,400.445c-8.561-2.626-15.98-8.067-21.063-15.443c-7.146-9.175-5.5-22.401,3.675-29.547
	c2.14-1.663,4.579-2.899,7.189-3.641c4.042-1.484,8.314-2.226,12.62-2.192c4.588,0.017,9.141,0.759,13.499,2.2
	c8.561,2.626,15.98,8.067,21.063,15.443c7.146,9.175,5.5,22.401-3.675,29.547c-2.14,1.663-4.579,2.899-7.189,3.641
	C436.984,403.387,427.783,403.387,419.324,400.445z M452.129,230.239V340.95c-3.667-2.183-7.547-3.965-11.58-5.338
	c-1.808-0.597-3.65-0.904-5.475-1.33V230.239H452.129z M358.328,162.02c14.13,0,25.582,11.452,25.582,25.582v25.582h-17.055v-25.582
	c0-4.707-3.82-8.527-8.527-8.527h-76.746c-4.707,0-8.527,3.82-8.527,8.527v25.582h-17.055v-25.582
	c0-14.13,11.452-25.582,25.582-25.582H358.328z M76.925,25.582c0-4.707,3.82-8.527,8.527-8.527H187.78
	c4.707,0,8.527,3.82,8.527,8.527s-3.82,8.527-8.527,8.527H85.452C80.745,34.109,76.925,30.289,76.925,25.582z M111.034,51.164
	h51.164v59.692h-51.164V51.164z M63.724,207.411l10.762,26.895l-57.253,25.446v-32.404L63.724,207.411z M17.233,278.418
	l34.109-15.162v146.057h17.055V255.821h-0.324l20.841-9.261c4.195-1.859,6.165-6.702,4.46-10.966l-17.055-42.637
	c-1.296-3.24-4.434-5.355-7.922-5.355V162.02H51.343v32.14l-34.109,14.624v-55.291c0-14.13,11.452-25.582,25.582-25.582h187.602
	c14.13,0,25.582,11.452,25.582,25.582v0.222c-10.702,7.982-17.012,20.542-17.055,33.888v25.582H221.89V162.02h-17.055v51.164
	h-34.109V162.02h-17.055v54.78c-15.52,6.771-25.557,22.086-25.582,39.021v170.547c0.034,9.252,3.104,18.249,8.749,25.582H42.815
	c-14.13,0-25.582-11.452-25.582-25.582V278.418z M38.551,494.587c-7.061,0-12.791-5.73-12.791-12.791s5.73-12.791,12.791-12.791
	s12.791,5.73,12.791,12.791l0,0C51.343,488.857,45.621,494.587,38.551,494.587z M166.462,494.587
	c-7.061,0-12.791-5.73-12.791-12.791s5.73-12.791,12.791-12.791s12.791,5.73,12.791,12.791l0,0
	C179.253,488.857,173.531,494.587,166.462,494.587z M247.472,481.796c0,7.061-5.73,12.791-12.791,12.791
	c-7.061,0-12.791-5.73-12.791-12.791s5.73-12.791,12.791-12.791C241.741,469.005,247.472,474.735,247.472,481.796L247.472,481.796z
	 M473.447,494.587c-7.061,0-12.791-5.73-12.791-12.791s5.73-12.791,12.791-12.791s12.791,5.73,12.791,12.791l0,0
	C486.238,488.857,480.516,494.587,473.447,494.587z M494.765,426.368c0,14.13-11.452,25.582-25.582,25.582v-48.171
	c2.959-3.454,5.236-7.436,6.728-11.734c3.59-11.58,1.62-24.175-5.33-34.109c-0.409-0.623-0.964-1.151-1.398-1.757V230.239
	c14.13,0,25.582,11.452,25.582,25.582V426.368z"/>
<path d="M314.105,250.867c-3.027-3.837-8.587-4.485-12.416-1.467c-0.546,0.426-1.032,0.921-1.467,1.467l-42.637,59.692
	c-2.737,3.837-1.85,9.158,1.987,11.896c1.45,1.032,3.181,1.586,4.954,1.586H349.8c4.707,0,8.527-3.82,8.527-8.527
	c0-1.774-0.554-3.513-1.586-4.954L314.105,250.867z M281.095,306.985l26.068-36.489l26.068,36.489H281.095z"/>
<g>
</g>
<g>
</g>
<g>
</g>
<g>
</g>
<g>
</g>
<g>
</g>
<g>
</g>
<g>
</g>
<g>
</g>
<g>
</g>
<g>
</g>
<g>
</g>
<g>
</g>
<g>
</g>
<g>
</g>
</svg>
