<?xml version="1.0" encoding="iso-8859-1"?>
<!-- Generator: Adobe Illustrator 19.0.0, SVG Export Plug-In . SVG Version: 6.00 Build 0)  -->
<svg version="1.1" id="Capa_1" xmlns="http://www.w3.org/2000/svg" xmlns:xlink="http://www.w3.org/1999/xlink" x="0px" y="0px"
	 viewBox="0 0 512 512" style="enable-background:new 0 0 512 512;" xml:space="preserve">
<path id="SVGCleanerId_0" d="M468.433,148.907c-16.968-19.802-46.772-22.097-66.573-5.129c-1.836,1.58-3.558,3.293-5.129,5.129
	l-7.001,8.175c-8.351,9.773-15.432,20.57-21.055,32.126c-36.646-57.304-112.807-74.051-170.111-37.405
	c-1.465,0.936-2.913,1.907-4.343,2.904c-20.667-14.558-45.342-22.344-70.626-22.291C55.335,132.415,0,187.751,0,256.01
	s55.335,123.595,123.595,123.595c25.284,0.053,49.959-7.734,70.626-22.291c55.706,39.029,132.511,25.505,171.541-30.201
	c0.989-1.413,1.951-2.843,2.878-4.299c5.624,11.556,12.704,22.353,21.055,32.126l7.001,8.175
	c16.968,19.802,46.772,22.097,66.573,5.129c1.836-1.58,3.558-3.293,5.129-5.129l7.001-8.175c48.802-56.924,48.802-140.933,0-197.858
	L468.433,148.907z M403.104,168.567l7.01-8.175c10.62-12.395,29.283-13.825,41.678-3.205c1.148,0.989,2.225,2.057,3.205,3.205
	l7.01,8.175c2.207,2.578,4.255,5.297,6.25,7.99h-71.385c2.004-2.719,4.052-5.412,6.259-7.945L403.104,168.567z M213.81,335.464
	l3.814,15.237c-8.166-4.087-15.767-9.208-22.618-15.237H213.81z M215.249,317.808h-36.275
	c-13.039-17.965-20.066-39.594-20.066-61.797c0-3.531,0.194-7.063,0.53-10.523l32.929-6.586l21.188,14.125l15.167,37.908
	L215.249,317.808z M256.018,179.496v28.127l-35.79,28.63l-18.831-12.554l-15.317-38.314c13.56-15.14,31.181-26.061,50.78-31.464
	L256.018,179.496z M173.774,202.158l8.307,20.782l-18.972,3.796C165.599,218.12,169.184,209.865,173.774,202.158z M244.338,282.495
	l-13.039-32.514l33.547-26.811l33.547,26.811l-13.039,32.514H244.338z M315.846,335.464h18.804
	c-6.851,6.03-14.452,11.15-22.618,15.237L315.846,335.464z M314.407,317.808l-13.366-26.891l15.167-37.908l21.188-14.125
	l32.929,6.586c0.335,3.461,0.53,6.974,0.53,10.523c0,22.203-7.027,43.832-20.066,61.797L314.407,317.808z M347.575,222.949
	l8.307-20.782c4.591,7.707,8.175,15.961,10.664,24.578L347.575,222.949z M343.611,185.385l-15.317,38.314l-18.831,12.554
	l-35.79-28.63v-28.127l19.157-25.549C312.421,159.341,330.051,170.253,343.611,185.385z M273.347,150.478l-8.502,11.362
	l-8.502-11.335c2.807-0.23,5.632-0.433,8.502-0.433s5.694,0.203,8.502,0.433V150.478z M141.701,247.182h-9.278v-96.748
	c16.924,1.36,33.247,6.833,47.575,15.944C157.557,187.565,143.891,216.398,141.701,247.182z M114.767,264.838v96.66
	c-17.656-1.457-34.668-7.345-49.438-17.127c20.587-21.62,32.982-49.747,35.057-79.533L114.767,264.838L114.767,264.838z
	 M100.385,247.182c-2.075-29.786-14.469-57.913-35.057-79.533c14.77-9.782,31.782-15.67,49.438-17.127v96.66H100.385z
	 M51.407,178.693c18.142,18.46,29.221,42.693,31.322,68.489H18.107C20.296,221.006,32.17,196.588,51.407,178.693z M18.107,264.838
	h64.622c-2.101,25.796-13.18,50.029-31.322,68.489C32.17,315.442,20.296,291.023,18.107,264.838z M132.423,361.587v-96.748h9.278
	c2.189,30.784,15.855,59.617,38.297,80.804C165.67,354.754,149.347,360.227,132.423,361.587z M237.717,358.294l-7.654-30.625
	l13.754-27.517h42.058l13.754,27.517l-7.654,30.625C274.221,363.167,255.47,363.167,237.717,358.294z M388.441,256.01
	c0.009-16.05-3.134-31.949-9.243-46.789c1.951-5.138,4.211-10.152,6.78-15.008h37.776v17.656h-17.656v17.656h17.656v17.656h-17.656
	v17.656h17.656v17.656h-17.656v17.656h17.656v17.656h-37.776c-2.569-4.855-4.829-9.87-6.78-15.008
	C385.307,287.959,388.449,272.06,388.441,256.01z M462.032,343.453l-7.01,8.175c-10.62,12.395-29.283,13.834-41.678,3.205
	c-1.148-0.989-2.225-2.057-3.205-3.205l-7.01-8.175c-2.207-2.578-4.255-5.297-6.259-7.99h71.411
	C466.288,338.183,464.239,340.876,462.032,343.453z M479.177,317.808H441.41v-17.656h17.656v-17.656H441.41v-17.656h17.656v-17.656
	H441.41v-17.656h17.656v-17.656H441.41v-17.656h37.767C499.446,232.924,499.446,279.105,479.177,317.808z"/>
<circle style="fill:#F46B27;" cx="123.595" cy="256.01" r="114.767"/>
<path style="fill:#DE4C3C;" d="M185.392,264.838v-17.656h-52.969V141.694c-2.922-0.23-5.844-0.45-8.828-0.45
	s-5.906,0.221-8.828,0.45v105.488h-14.381c-2.278-32.92-17.136-63.704-41.493-85.96c-4.908,3.399-9.543,7.177-13.869,11.291
	l2.004,1.766c20.711,18.901,33.468,44.953,35.701,72.903H9.278c-0.23,2.922-0.45,5.844-0.45,8.828c0,2.984,0.221,5.906,0.45,8.828
	h73.451c-2.172,27.756-14.752,53.667-35.233,72.524l-2.587,2.039c4.37,4.167,9.058,7.981,14.019,11.406
	c24.357-22.265,39.206-53.049,41.457-85.969h14.381v105.488c2.922,0.23,5.844,0.45,8.828,0.45s5.906-0.221,8.828-0.45V264.838
	H185.392z"/>
<path style="fill:#FDB62F;" d="M494.379,305.528L494.379,305.528L494.379,305.528c11.786-31.94,11.786-67.041,0-98.982l0,0l0,0
	c-1.439-3.92-3.046-7.769-4.838-11.538l-0.053-0.124c-5.438-11.565-12.404-22.353-20.711-32.064l-7.001-8.175
	c-7.31-8.51-17.974-13.41-29.195-13.401l0,0c-11.203,0.009-21.841,4.9-29.133,13.401l-7.01,8.175
	c-8.307,9.693-15.282,20.464-20.737,32.002c-0.079,0.177-0.132,0.353-0.212,0.521c-1.713,3.655-3.284,7.363-4.679,11.141l0,0l0,0
	c-11.786,31.94-11.786,67.041,0,98.982l0,0l0,0c1.421,3.867,3.019,7.663,4.776,11.38l0.115,0.283
	c5.438,11.565,12.395,22.353,20.684,32.073l7.01,8.166c7.301,8.519,17.965,13.419,29.186,13.41l0,0
	c11.203-0.009,21.841-4.908,29.133-13.41l7.001-8.166c8.316-9.693,15.29-20.464,20.737-32.011l0.124-0.283
	C491.333,313.182,492.94,309.394,494.379,305.528z"/>
<path style="fill:#DE4C3C;" d="M386.083,176.556c-3.778,5.641-7.142,11.538-10.082,17.656h47.752v17.656h-17.656v17.656h17.656
	v17.656h-17.656v17.656h17.656v17.656h-17.656v17.656h17.656v17.656h-47.752c2.94,6.118,6.303,12.015,10.082,17.656h92.987
	c3.778-5.641,7.142-11.538,10.082-17.656H441.41v-17.656h17.656v-17.656H441.41v-17.656h17.656v-17.656H441.41v-17.656h17.656
	v-17.656H441.41v-17.656h47.743c-2.94-6.118-6.303-12.015-10.082-17.656H386.083z"/>
<circle style="fill:#E0E0E0;" cx="264.846" cy="256.01" r="114.767"/>
<path style="fill:#75462E;" d="M295.745,280.358l7.477-18.707l44.521-29.68l30.351,6.074c-3.178-20.393-11.821-39.541-25.01-55.415
	l-12.315,32.77l-39.021,26.008l-28.074-22.477v-54.735l14.664-20.526c-16.288-3.425-33.123-3.222-49.323,0.6l17.003,21.249v53.411
	l-28.083,22.459l-40.08-26.723l-12.845-29.954c-12.483,15.714-20.605,34.448-23.536,54.311l30.81-6.851l44.212,29.477l7.477,18.707
	l-23.139,46.277h-36.328c14.284,18.301,33.777,31.843,55.909,38.844l-6.427-25.708l24.242-48.449h33.229l24.233,48.476
	l-6.418,25.681c22.132-7.001,41.625-20.543,55.909-38.844h-36.328L295.745,280.358z"/>
<g>
	<path id="SVGCleanerId_0_1_" d="M468.433,148.907c-16.968-19.802-46.772-22.097-66.573-5.129c-1.836,1.58-3.558,3.293-5.129,5.129
		l-7.001,8.175c-8.351,9.773-15.432,20.57-21.055,32.126c-36.646-57.304-112.807-74.051-170.111-37.405
		c-1.465,0.936-2.913,1.907-4.343,2.904c-20.667-14.558-45.342-22.344-70.626-22.291C55.335,132.415,0,187.751,0,256.01
		s55.335,123.595,123.595,123.595c25.284,0.053,49.959-7.734,70.626-22.291c55.706,39.029,132.511,25.505,171.541-30.201
		c0.989-1.413,1.951-2.843,2.878-4.299c5.624,11.556,12.704,22.353,21.055,32.126l7.001,8.175
		c16.968,19.802,46.772,22.097,66.573,5.129c1.836-1.58,3.558-3.293,5.129-5.129l7.001-8.175
		c48.802-56.924,48.802-140.933,0-197.858L468.433,148.907z M403.104,168.567l7.01-8.175c10.62-12.395,29.283-13.825,41.678-3.205
		c1.148,0.989,2.225,2.057,3.205,3.205l7.01,8.175c2.207,2.578,4.255,5.297,6.25,7.99h-71.385c2.004-2.719,4.052-5.412,6.259-7.945
		L403.104,168.567z M213.81,335.464l3.814,15.237c-8.166-4.087-15.767-9.208-22.618-15.237H213.81z M215.249,317.808h-36.275
		c-13.039-17.965-20.066-39.594-20.066-61.797c0-3.531,0.194-7.063,0.53-10.523l32.929-6.586l21.188,14.125l15.167,37.908
		L215.249,317.808z M256.018,179.496v28.127l-35.79,28.63l-18.831-12.554l-15.317-38.314c13.56-15.14,31.181-26.061,50.78-31.464
		L256.018,179.496z M173.774,202.158l8.307,20.782l-18.972,3.796C165.599,218.12,169.184,209.865,173.774,202.158z M244.338,282.495
		l-13.039-32.514l33.547-26.811l33.547,26.811l-13.039,32.514H244.338z M315.846,335.464h18.804
		c-6.851,6.03-14.452,11.15-22.618,15.237L315.846,335.464z M314.407,317.808l-13.366-26.891l15.167-37.908l21.188-14.125
		l32.929,6.586c0.335,3.461,0.53,6.974,0.53,10.523c0,22.203-7.027,43.832-20.066,61.797L314.407,317.808z M347.575,222.949
		l8.307-20.782c4.591,7.707,8.175,15.961,10.664,24.578L347.575,222.949z M343.611,185.385l-15.317,38.314l-18.831,12.554
		l-35.79-28.63v-28.127l19.157-25.549C312.421,159.341,330.051,170.253,343.611,185.385z M273.347,150.478l-8.502,11.362
		l-8.502-11.335c2.807-0.23,5.632-0.433,8.502-0.433s5.694,0.203,8.502,0.433V150.478z M141.701,247.182h-9.278v-96.748
		c16.924,1.36,33.247,6.833,47.575,15.944C157.557,187.565,143.891,216.398,141.701,247.182z M114.767,264.838v96.66
		c-17.656-1.457-34.668-7.345-49.438-17.127c20.587-21.62,32.982-49.747,35.057-79.533L114.767,264.838L114.767,264.838z
		 M100.385,247.182c-2.075-29.786-14.469-57.913-35.057-79.533c14.77-9.782,31.782-15.67,49.438-17.127v96.66H100.385z
		 M51.407,178.693c18.142,18.46,29.221,42.693,31.322,68.489H18.107C20.296,221.006,32.17,196.588,51.407,178.693z M18.107,264.838
		h64.622c-2.101,25.796-13.18,50.029-31.322,68.489C32.17,315.442,20.296,291.023,18.107,264.838z M132.423,361.587v-96.748h9.278
		c2.189,30.784,15.855,59.617,38.297,80.804C165.67,354.754,149.347,360.227,132.423,361.587z M237.717,358.294l-7.654-30.625
		l13.754-27.517h42.058l13.754,27.517l-7.654,30.625C274.221,363.167,255.47,363.167,237.717,358.294z M388.441,256.01
		c0.009-16.05-3.134-31.949-9.243-46.789c1.951-5.138,4.211-10.152,6.78-15.008h37.776v17.656h-17.656v17.656h17.656v17.656h-17.656
		v17.656h17.656v17.656h-17.656v17.656h17.656v17.656h-37.776c-2.569-4.855-4.829-9.87-6.78-15.008
		C385.307,287.959,388.449,272.06,388.441,256.01z M462.032,343.453l-7.01,8.175c-10.62,12.395-29.283,13.834-41.678,3.205
		c-1.148-0.989-2.225-2.057-3.205-3.205l-7.01-8.175c-2.207-2.578-4.255-5.297-6.259-7.99h71.411
		C466.288,338.183,464.239,340.876,462.032,343.453z M479.177,317.808H441.41v-17.656h17.656v-17.656H441.41v-17.656h17.656v-17.656
		H441.41v-17.656h17.656v-17.656H441.41v-17.656h37.767C499.446,232.924,499.446,279.105,479.177,317.808z"/>
</g>
<g>
</g>
<g>
</g>
<g>
</g>
<g>
</g>
<g>
</g>
<g>
</g>
<g>
</g>
<g>
</g>
<g>
</g>
<g>
</g>
<g>
</g>
<g>
</g>
<g>
</g>
<g>
</g>
<g>
</g>
</svg>
