<?xml version="1.0" encoding="iso-8859-1"?>
<!-- Generator: Adobe Illustrator 19.0.0, SVG Export Plug-In . SVG Version: 6.00 Build 0)  -->
<svg version="1.1" id="Capa_1" xmlns="http://www.w3.org/2000/svg" xmlns:xlink="http://www.w3.org/1999/xlink" x="0px" y="0px"
	 viewBox="0 0 512.002 512.002" style="enable-background:new 0 0 512.002 512.002;" xml:space="preserve">
<path style="fill:#F5DCB4;" d="M414.433,397.861l-53.282-16.394c-10.09-3.105-16.976-12.427-16.976-22.984v-38.352
	c0-4.427-3.589-8.016-8.016-8.016H175.838c-4.427,0-8.016,3.589-8.016,8.016v38.351c0,10.557-6.886,19.88-16.976,22.985
	l-53.281,16.394c-20.181,6.21-33.952,24.855-33.952,45.97v60.67h384.774v-60.67C448.386,422.717,434.615,404.071,414.433,397.861z"
	/>
<path style="fill:#EBC9A0;" d="M151.64,381.15c12.446,34.099,54.388,59.223,104.358,59.223s91.912-25.123,104.358-59.223
	c-9.64-3.348-16.181-12.399-16.181-22.667v-38.352c0-4.427-3.589-8.016-8.016-8.016H175.838c-4.427,0-8.016,3.589-8.016,8.016
	v38.351C167.821,368.75,161.281,377.803,151.64,381.15z"/>
<path style="fill:#D2B496;" d="M336.16,312.115H175.838c-4.427,0-8.016,3.589-8.016,8.016v5.146
	c20.548,26.118,52.367,42.951,88.177,42.951s67.629-16.833,88.177-42.951v-5.146C344.176,315.703,340.587,312.115,336.16,312.115z"
	/>
<path style="fill:#F5B97D;" d="M372.233,175.841h-12.024V95.679h-208.42v80.161h-12.024c-11.022,0-20.04,9.018-20.04,20.04
	s9.018,20.04,20.04,20.04h12.429c4.106,53.795,48.958,96.194,103.805,96.194s99.699-42.398,103.805-96.194h12.429
	c11.022,0,20.04-9.018,20.04-20.04S383.255,175.841,372.233,175.841z"/>
<path style="fill:#E3AA75;" d="M320.128,103.695v-8.016H151.789v80.161h-11.321c-9.127,0-17.651,5.783-20.015,14.598
	c-3.576,13.332,6.518,25.482,19.312,25.482h12.429c4.106,53.795,48.957,96.194,103.805,96.194c5.483,0,10.83-0.534,16.083-1.351
	c-49.946-7.708-88.228-50.754-88.228-102.859v-40.081c0-22.136,17.945-40.081,40.081-40.081h72.145
	C309.361,127.744,320.128,116.977,320.128,103.695z"/>
<path style="fill:#5A4650;" d="M199.886,25.244c-39.398,8.154-67.755,45.104-63.353,86.843l6.773,64.225l8.269-0.163
	c8.73-0.171,15.717-7.297,15.717-16.029v-32.377c0-13.282,10.767-24.048,24.048-24.048h88.707L199.886,25.244z"/>
<path style="fill:#84737B;" d="M320.128,223.937H191.87c-13.282,0-24.048,10.767-24.048,24.048v8.017
	c0,48.699,39.478,88.177,88.177,88.177l0,0c48.699,0,88.177-39.478,88.177-88.177v-8.016
	C344.176,234.704,333.409,223.937,320.128,223.937z"/>
<g>
	<path style="fill:#6E5A64;" d="M207.902,256.002v-8.016c0-13.282,10.767-24.048,24.048-24.048h-40.081
		c-13.282,0-24.048,10.767-24.048,24.048v8.016c0,48.699,39.478,88.177,88.177,88.177c6.905,0,13.592-0.874,20.04-2.375
		C237.011,332.718,207.902,297.796,207.902,256.002z"/>
	<path style="fill:#6E5A64;" d="M368.162,176.312l6.774-64.225c4.992-47.327-32.115-88.553-79.704-88.553h-79.313
		c-24.049,0-52.106-4.008-64.129-16.032c0,0-16.032,96.194,128.258,96.194h40.081c13.282,0,24.048,10.767,24.048,24.048v32.377
		c0,8.732,6.987,15.858,15.717,16.029L368.162,176.312z"/>
</g>
<path d="M207.902,176.356c-4.143,0-7.5,3.357-7.5,7.5v8.017c0,4.143,3.357,7.5,7.5,7.5s7.5-3.357,7.5-7.5v-8.017
	C215.402,179.714,212.045,176.356,207.902,176.356z"/>
<path d="M304.096,176.356c-4.143,0-7.5,3.357-7.5,7.5v8.017c0,4.143,3.357,7.5,7.5,7.5s7.5-3.357,7.5-7.5v-8.017
	C311.596,179.714,308.238,176.356,304.096,176.356z"/>
<path d="M274.781,250.663c-2.739,2.701-9.301,5.855-18.782,5.855c-9.481,0-16.043-3.154-18.782-5.855
	c-2.949-2.911-7.698-2.879-10.605,0.072c-2.909,2.948-2.877,7.697,0.072,10.605c6.46,6.373,17.419,10.178,29.315,10.178
	s22.855-3.805,29.315-10.178c2.949-2.908,2.981-7.657,0.072-10.605C282.478,247.784,277.729,247.754,274.781,250.663z"/>
<path d="M199.886,167.308h16.032c4.143,0,7.5-3.357,7.5-7.5s-3.357-7.5-7.5-7.5h-16.032c-4.143,0-7.5,3.357-7.5,7.5
	S195.743,167.308,199.886,167.308z"/>
<path d="M296.08,167.308h16.032c4.143,0,7.5-3.357,7.5-7.5s-3.357-7.5-7.5-7.5H296.08c-4.143,0-7.5,3.357-7.5,7.5
	S291.937,167.308,296.08,167.308z"/>
<path d="M416.638,390.693l-53.28-16.394c-6.987-2.15-11.682-8.507-11.682-15.817V320.13c0-7.835-5.844-14.315-13.398-15.354
	c6.805-11.437,11.294-24.403,12.816-38.252c8.137-13.176,13.406-27.838,15.535-43.105h4.459c0.002,0,0.001,0,0.003,0
	c14.615-0.001,27.152-10.861,28.54-24.727c0.778-7.771-1.764-15.529-6.974-21.287c-4.244-4.69-9.967-7.751-16.138-8.728
	l5.875-55.807c2.597-24.67-5.433-49.393-22.029-67.828c-16.598-18.437-40.344-29.01-65.15-29.01h-79.297
	c-27.751,0-50.292-5.302-58.825-13.836c-1.986-1.986-4.913-2.694-7.593-1.839c-2.675,0.857-4.647,3.139-5.108,5.909
	c-0.176,1.055-3.084,19.703,5.19,41.146c-15.212,18.164-22.471,41.781-19.978,65.457l5.892,55.972
	c-12.189,2.285-21.916,12.106-23.129,24.221c-0.778,7.771,1.763,15.53,6.973,21.288c5.214,5.763,12.659,9.067,20.427,9.067h5.597
	c2.128,15.271,7.398,29.927,15.541,43.11c1.523,13.846,6.011,26.811,12.816,38.246c-7.554,1.039-13.398,7.518-13.398,15.354v38.352
	c0,7.311-4.694,13.667-11.681,15.817L95.36,390.69c-23.475,7.223-39.246,28.577-39.246,53.138v60.674c0,4.143,3.357,7.5,7.5,7.5
	s7.5-3.357,7.5-7.5v-60.671c0-17.934,11.517-33.527,28.658-38.802l48.726-14.992c13.385,33.922,57.031,57.836,107.502,57.836
	c17.839,0,34.877-2.884,50.642-8.572c3.896-1.405,5.916-5.704,4.51-9.6c-1.406-3.897-5.707-5.919-9.6-4.51
	c-13.93,5.025-29.681,7.682-45.552,7.682c-23.32,0-45.876-5.694-63.514-16.035c-14.852-8.707-25.395-20.202-30.214-32.776
	c8.064-5.798,13.05-15.18,13.05-25.579v-38.352c0-0.284,0.231-0.516,0.517-0.516h8.761c17.536,19.661,43.044,32.064,71.4,32.064
	s53.864-12.404,71.4-32.064h8.761c0.285,0,0.517,0.231,0.517,0.516v38.352c0,10.401,4.988,19.784,13.054,25.582
	c-3.692,9.647-10.749,18.673-20.649,26.331c-3.276,2.534-3.878,7.245-1.344,10.521c1.478,1.91,3.695,2.911,5.938,2.911
	c1.603,0,3.218-0.511,4.584-1.567c11.895-9.2,20.501-20.237,25.235-32.226l48.734,14.995c17.142,5.274,28.658,20.868,28.658,38.802
	v60.67c0,4.143,3.357,7.5,7.5,7.5s7.5-3.357,7.5-7.5v-60.671C455.886,419.27,440.114,397.916,416.638,390.693z M177.752,27.356
	c13.983,3.04,28.474,3.678,38.166,3.678h79.297c20.562,0,40.245,8.765,54.002,24.046s20.412,35.773,18.26,56.222l-6.004,57.039
	h-1.264c-4.705,0-8.532-3.827-8.532-8.532v-32.064c0-17.396-14.152-31.549-31.549-31.549h-40.08
	c-49.966,0-85.218-11.623-104.778-34.548c-11.992-14.055-15.46-29.761-16.271-40.384C164.278,23.752,170.543,25.789,177.752,27.356z
	 M163.144,234.966c-2.542-8.729-3.855-17.828-3.855-27.061c0-4.143-3.357-7.5-7.5-7.5s-7.5,3.357-7.5,7.5v0.516h-4.523
	c-3.537,0-6.929-1.506-9.304-4.131c-2.406-2.66-3.532-6.115-3.17-9.729c0.63-6.292,6.611-11.22,13.617-11.22
	c0.488,0,10.88,0,10.88,0c12.976,0,23.532-10.557,23.532-23.532v-40.081c0-3.037,1.637-5.87,4.271-7.395
	c3.585-2.075,4.811-6.663,2.736-10.248c-2.075-3.584-6.663-4.809-10.248-2.736c-7.254,4.197-11.76,12.006-11.76,20.379v40.081
	c0,4.705-3.827,8.532-8.532,8.532h-1.264l-6.004-57.039c-1.834-17.426,2.723-34.802,12.59-49.022
	c1.912,2.981,4.077,5.953,6.554,8.876c22.507,26.567,61.663,40.039,116.383,40.039h40.08c9.125,0,16.549,7.424,16.549,16.549v32.064
	c0,12.976,10.557,23.532,23.532,23.532c0,0,11.332,0,12.023,0c3.537,0,6.928,1.506,9.304,4.131c2.406,2.659,3.532,6.114,3.17,9.729
	c-0.63,6.292-6.609,11.221-13.615,11.221h-3.386v-0.438c0-4.141-3.356-7.498-7.497-7.5h-0.003c-4.14,0-7.497,3.354-7.5,7.494
	c-0.007,9.2-1.323,18.272-3.857,26.977c-4.97-10.91-15.97-18.517-28.72-18.517H191.87
	C179.115,216.437,168.112,224.05,163.144,234.966z M336.677,256.002c0,44.486-36.192,80.678-80.678,80.678
	s-80.678-36.192-80.678-80.678v-8.017c0-9.124,7.424-16.548,16.549-16.548h128.258c9.125,0,16.549,7.424,16.549,16.548V256.002z"/>
<g>
</g>
<g>
</g>
<g>
</g>
<g>
</g>
<g>
</g>
<g>
</g>
<g>
</g>
<g>
</g>
<g>
</g>
<g>
</g>
<g>
</g>
<g>
</g>
<g>
</g>
<g>
</g>
<g>
</g>
</svg>
