<svg id="_x33_0" enable-background="new 0 0 64 64" height="512" viewBox="0 0 64 64" width="512" xmlns="http://www.w3.org/2000/svg"><g><g><g><path d="m22.83 38.46c-3.9.56-6.83 3.91-6.83 7.9v9.64l-3.64-2.08c-2.08-1.19-3.36-3.4-3.36-5.79v-.11c0-1.23.35-2.41.97-3.42.63-1.01 1.53-1.85 2.63-2.4.74-.37 1.34-.93 1.75-1.6.42-.68.65-1.46.65-2.28 0-.86-.25-1.7-.73-2.41l-.3-.46c-.63-.95-.97-2.06-.97-3.19 0-1.01.26-1.98.75-2.84.48-.85 1.17-1.58 2.04-2.1 1.37-.82 2.21-2.3 2.21-3.89v-9.43c0-2.76 1.12-5.26 2.93-7.07s4.31-2.93 7.07-2.93v3 2 6c-3.31 0-6 2.69-6 6v3c0 2.76 1.12 5.26 2.93 7.07.88.88 1.92 1.59 3.07 2.09v.01 4.83l-4.66.39c-.17.01-.34.03-.51.07z" fill="#b27946"/></g><g><path d="m41.17 38.46c-.17-.04-.34-.06-.51-.07l-4.66-.39v-4.83-.01c3.53-1.54 6-5.06 6-9.16v-8h-.9c-1.32 0-2.57-.62-3.36-1.68-.55-.73-1.25-1.31-2.05-1.71-.79-.39-1.67-.61-2.59-.61-1.94 0-3.75.97-4.82 2.58l-.28.42v-6-2-3l.1-.07c1.89-1.26 4.11-1.93 6.39-1.93 6.36 0 11.51 5.15 11.51 11.51v9.92c0 1.59.84 3.07 2.21 3.89.87.52 1.56 1.25 2.04 2.1.49.86.75 1.83.75 2.84 0 1.13-.34 2.24-.97 3.19l-.3.46c-.48.71-.73 1.55-.73 2.41 0 .82.23 1.6.65 2.28.41.67 1.01 1.23 1.75 1.6 2.21 1.1 3.6 3.36 3.6 5.82v.11c0 2.39-1.28 4.6-3.36 5.79l-3.64 2.08v-9.64c0-3.99-2.93-7.34-6.83-7.9z" fill="#b27946"/></g><g><path d="m40.64 53.07v.01l-.2.6c-.29.87-.44 1.79-.44 2.72 0 1.69.5 3.35 1.44 4.77l.56.83h-20l.56-.83c.94-1.42 1.44-3.08 1.44-4.77 0-.93-.15-1.85-.44-2.72l-.2-.6v-.01c-.5-.28-.97-.64-1.38-1.05-1.22-1.23-1.98-2.92-1.98-4.79 0-.81.15-1.62.43-2.38l2.4-6.39c.17-.04.34-.06.51-.07l4.66-.39c0 2.21 1.79 4 4 4 1.1 0 2.1-.45 2.83-1.17.72-.73 1.17-1.73 1.17-2.83l4.66.39c.17.01.34.03.51.07l2.4 6.39c.28.76.43 1.57.43 2.38 0 1.87-.76 3.56-1.98 4.79-.41.41-.88.77-1.38 1.05z" fill="#fcd770"/></g><g><path d="m23.56 53.68c.29.87.44 1.79.44 2.72 0 1.69-.5 3.35-1.44 4.77l-.56.83h-6v-6-9.64c0-3.99 2.93-7.34 6.83-7.9l-2.4 6.39c-.28.76-.43 1.57-.43 2.38 0 1.87.76 3.56 1.98 4.79.41.41.88.77 1.38 1.05v.01z" fill="#f0d0b4"/></g><g><path d="m48 56v6h-6l-.56-.83c-.94-1.42-1.44-3.08-1.44-4.77 0-.93.15-1.85.44-2.72l.2-.6v-.01c.5-.28.97-.64 1.38-1.05 1.22-1.23 1.98-2.92 1.98-4.79 0-.81-.15-1.62-.43-2.38l-2.4-6.39c3.9.56 6.83 3.91 6.83 7.9z" fill="#f0d0b4"/></g><g><path d="m36 33.17v4.83c0 1.1-.45 2.1-1.17 2.83-.73.72-1.73 1.17-2.83 1.17-2.21 0-4-1.79-4-4v-4.83-.01c1.22.54 2.58.84 4 .84s2.78-.3 4-.84z" fill="#f0d0b4"/></g><g><path d="m42 16v8c0 4.1-2.47 7.62-6 9.16-1.22.54-2.58.84-4 .84s-2.78-.3-4-.84c-1.15-.5-2.19-1.21-3.07-2.09-1.81-1.81-2.93-4.31-2.93-7.07v-3c0-3.31 2.69-6 6-6l.28-.42c1.07-1.61 2.88-2.58 4.82-2.58.92 0 1.8.22 2.59.61.8.4 1.5.98 2.05 1.71.79 1.06 2.04 1.68 3.36 1.68z" fill="#f0d0b4"/></g></g><g><path d="m28 22c.552 0 1 .449 1 1h2c0-1.654-1.346-3-3-3s-3 1.346-3 3h2c0-.551.448-1 1-1z"/><path d="m36 22c.552 0 1 .449 1 1h2c0-1.654-1.346-3-3-3s-3 1.346-3 3h2c0-.551.448-1 1-1z"/><path d="m29 26.835-.052-.154-1.896.638.052.151c.703 2.112 2.67 3.53 4.896 3.53s4.193-1.418 4.896-3.527l.052-.154-1.896-.638-.052.157c-.432 1.293-1.637 2.162-3 2.162s-2.568-.869-3-2.165z"/><path d="m51.849 41.306c-1.141-.57-1.849-1.716-1.849-2.991 0-.663.194-1.304.562-1.855l.304-.455c.741-1.113 1.134-2.408 1.134-3.747 0-2.359-1.257-4.578-3.279-5.792-1.062-.637-1.721-1.801-1.721-3.039v-9.913c0-6.9-5.613-12.514-12.514-12.514-2.419 0-4.764.692-6.793 2.004-5.924.163-10.693 5.033-10.693 10.996v9.427c0 1.238-.659 2.402-1.721 3.04-2.022 1.213-3.279 3.432-3.279 5.791 0 1.339.393 2.634 1.135 3.746l.304.457c.367.551.561 1.192.561 1.854 0 1.275-.708 2.421-1.849 2.991-2.56 1.28-4.151 3.855-4.151 6.717v.103c0 2.748 1.481 5.301 3.867 6.664l3.133 1.79v6.42h34v-6.42l3.133-1.79c2.386-1.363 3.867-3.916 3.867-6.664v-.103c0-2.862-1.591-5.437-4.151-6.717zm-24.725-2.229c.494 2.239 2.49 3.923 4.876 3.923s4.382-1.684 4.876-3.923l3.571.298 2.184 5.827c.245.65.369 1.332.369 2.026 0 3.183-2.59 5.772-5.772 5.772h-2.228v2h2.228c.663 0 1.303-.092 1.918-.249-.095.542-.146 1.092-.146 1.645 0 1.623.429 3.191 1.204 4.604h-16.409c.776-1.412 1.205-2.981 1.205-4.604 0-.553-.051-1.103-.146-1.645.615.157 1.255.249 1.918.249h2.228v-2h-2.228c-3.182 0-5.772-2.589-5.772-5.772 0-.694.124-1.376.368-2.027l2.184-5.827zm.876-23.077h.535l.576-.864c.892-1.338 2.384-2.136 3.991-2.136 1.502 0 2.937.717 3.838 1.918.957 1.276 2.469 2.049 4.061 2.081v7.001c0 4.962-4.037 9-9 9s-9-4.038-9-9v-3c-.001-2.757 2.242-5 4.999-5zm4 19c1.041 0 2.045-.155 3-.426v3.426c0 1.654-1.346 3-3 3s-3-1.346-3-3v-3.426c.955.271 1.959.426 3 .426zm-12.505 9.499c-.328.876-.495 1.794-.495 2.729 0 2.717 1.404 5.109 3.521 6.499l.088.265c.26.778.391 1.586.391 2.404 0 1.505-.441 2.963-1.276 4.216l-.259.388h-4.465v-14.639c0-2.822 1.726-5.304 4.196-6.399zm27.505 16.501h-4.465l-.258-.387c-.836-1.254-1.277-2.712-1.277-4.217 0-.818.131-1.626.39-2.404l.088-.265c2.118-1.39 3.522-3.782 3.522-6.499 0-.935-.167-1.853-.495-2.729l-1.701-4.538c2.47 1.096 4.196 3.578 4.196 6.4zm7-12.874c0 2.032-1.096 3.92-2.859 4.928l-2.141 1.223v-7.916c0-4.644-3.625-8.583-8.253-8.969l-3.747-.312v-3.294c3.556-1.825 6-5.521 6-9.786v-9h-1.898c-1.003 0-1.96-.479-2.563-1.282-1.276-1.702-3.31-2.718-5.437-2.718-1.507 0-2.936.504-4.102 1.389v-3.389h-2v5.078c-3.387.487-6 3.402-6 6.922v3c0 4.264 2.444 7.961 6 9.786v3.294l-3.747.312c-4.628.386-8.253 4.325-8.253 8.969v7.916l-2.141-1.223c-1.763-1.008-2.859-2.896-2.859-4.928v-.103c0-2.101 1.167-3.989 3.046-4.928 1.822-.911 2.954-2.742 2.954-4.78 0-1.059-.311-2.083-.897-2.964l-.304-.457c-.523-.782-.799-1.694-.799-2.636 0-1.66.885-3.222 2.309-4.077 1.66-.996 2.691-2.818 2.691-4.754v-9.427c0-4.624 3.507-8.442 8-8.941v1.941h2v-2.447c1.654-1.013 3.54-1.553 5.486-1.553 5.797 0 10.514 4.716 10.514 10.514v9.913c0 1.936 1.031 3.758 2.691 4.754 1.424.855 2.309 2.417 2.309 4.077 0 .942-.276 1.854-.799 2.638l-.304.456c-.586.88-.897 1.905-.897 2.963 0 2.037 1.132 3.869 2.954 4.78 1.879.94 3.046 2.828 3.046 4.928z"/></g></g></svg>