<?xml version="1.0" encoding="iso-8859-1"?>
<!-- Generator: Adobe Illustrator 19.0.0, SVG Export Plug-In . SVG Version: 6.00 Build 0)  -->
<svg version="1.1" id="Capa_1" xmlns="http://www.w3.org/2000/svg" xmlns:xlink="http://www.w3.org/1999/xlink" x="0px" y="0px"
	 viewBox="0 0 512.005 512.005" style="enable-background:new 0 0 512.005 512.005;" xml:space="preserve">
<g>
	<g transform="translate(0 1)">
		<path style="fill:#009688;" d="M493.1,414.962l5.592,59.059c1.207,13.496-8.114,25.67-21.457,28.027
			c-13.002,2.343-25.74-5.264-29.844-17.822l-15.446-50.532H328.854l-15.445,50.532c-4.115,12.725-17.106,20.354-30.224,17.748
			c-13.118-2.606-22.207-14.621-21.146-27.953l5.522-57.452c-11.067-13.755-13.261-32.64-5.641-48.565
			c7.62-15.925,23.701-26.067,41.356-26.079c13.041-0.04,25.468,5.537,34.107,15.306h84.709c8.639-9.77,21.066-15.347,34.107-15.306
			c17.297-0.006,33.124,9.726,40.924,25.164C504.922,382.527,503.367,401.041,493.1,414.962L493.1,414.962z"/>
		<g>
			<path style="fill:#4482C3;" d="M334.166,433.693h30.263c0.039,5.432-2.837,10.467-7.535,13.195
				c-4.698,2.727-10.497,2.727-15.194,0C337.003,444.16,334.127,439.124,334.166,433.693z"/>
			<path style="fill:#4482C3;" d="M425.585,433.693c0.039,5.432-2.837,10.467-7.535,13.195c-4.698,2.727-10.497,2.727-15.194,0
				c-4.698-2.727-7.573-7.763-7.535-13.195H425.585z"/>
		</g>
		<g>
			<path style="fill:#4CAF50;" d="M349.123,387.774c0,18.544-11.171,35.263-28.303,42.36c-17.133,7.097-36.854,3.174-49.967-9.939
				c-13.113-13.113-17.036-32.834-9.939-49.966c7.097-17.133,23.815-28.304,42.36-28.304
				C328.559,342.012,349.036,362.488,349.123,387.774z"/>
			<path style="fill:#4CAF50;" d="M502.047,387.774c0.071,16.427-8.652,31.637-22.867,39.872c-14.215,8.234-31.749,8.234-45.964,0
				c-14.215-8.234-22.938-23.444-22.867-39.872c0.087-25.286,20.564-45.762,45.85-45.849
				C481.514,341.939,502.032,362.458,502.047,387.774z"/>
			<path style="fill:#4CAF50;" d="M428.452,433.766c-0.11,9.578-7.948,17.262-17.527,17.181
				c-9.579-0.081-17.286-7.896-17.235-17.475c0.052-9.579,7.843-17.31,17.422-17.288c2.895,0.013,5.74,0.759,8.269,2.167
				C425,421.441,428.48,427.354,428.452,433.766z"/>
			<path style="fill:#4CAF50;" d="M365.396,433.766c-0.11,9.578-7.949,17.262-17.527,17.181
				c-9.579-0.081-17.286-7.896-17.235-17.475c0.052-9.579,7.843-17.31,17.422-17.288c2.895,0.013,5.74,0.759,8.269,2.167
				C361.944,421.441,365.424,427.354,365.396,433.766z"/>
		</g>
		<path style="fill:#00838F;" d="M366.936,24.6v221.867H8.536V24.6c0.028-9.414,7.652-17.039,17.067-17.067h324.267
			C359.283,7.561,366.908,15.186,366.936,24.6z"/>
		<path style="fill:#00BCD4;" d="M341.336,24.6v221.867H8.536V24.6C8.239,15.526,15.312,7.908,24.383,7.533h301.105
			C334.56,7.908,341.633,15.526,341.336,24.6z"/>
		<path style="fill:#E91E63;" d="M238.936,195.267V229.4h-68.267v-25.6c0.014-4.707,3.826-8.519,8.533-8.533H238.936z"/>
		<path style="fill:#3F51B5;" d="M204.802,127v68.267h-25.6c-4.707,0.014-8.519,3.826-8.533,8.533v25.6h-34.133v-59.733
			c0.014-4.707,3.826-8.519,8.533-8.533h17.067c4.707-0.014,8.519-3.826,8.533-8.533v-17.067c0.014-4.707,3.826-8.519,8.533-8.533
			H204.802z"/>
		<path style="fill:#FFEB3A;" d="M238.936,92.867v102.4h-34.133v-102.4c0.014-4.707,3.826-8.519,8.533-8.533h17.067
			C235.109,84.347,238.922,88.16,238.936,92.867z"/>
		<path style="fill:#4CAF50;" d="M187.736,7.533v34.133c0,4.713-3.821,8.533-8.533,8.533h-8.533c-4.713,0-8.533,3.821-8.533,8.533
			V75.8c0,4.713-3.821,8.533-8.533,8.533h-17.067c-4.713,0-8.533-3.82-8.533-8.533V7.533"/>
		<rect x="145.069" y="246.467" style="fill:#CFD8DC;" width="85.333" height="68.267"/>
		<path style="fill:#37474F;" d="M366.936,229.4v17.067c-0.028,9.414-7.653,17.039-17.067,17.067H25.602
			c-9.414-0.028-17.039-7.653-17.067-17.067V229.4H366.936z"/>
		<path style="fill:#607D8B;" d="M341.336,229.4v17.067c0.297,9.074-6.776,16.691-15.848,17.067H24.383
			c-9.071-0.375-16.145-7.992-15.848-17.067V229.4H341.336z"/>
		<path style="fill:#37474F;" d="M136.536,297.667h102.4c9.426,0,17.067,7.641,17.067,17.067l0,0
			c0,9.426-7.641,17.067-17.067,17.067h-102.4c-9.426,0-17.067-7.641-17.067-17.067l0,0
			C119.469,305.308,127.11,297.667,136.536,297.667z"/>
		<path style="fill:#607D8B;" d="M216.536,331.8h-83.2c-8.495-0.971-14.655-8.553-13.867-17.067
			c-0.789-8.513,5.372-16.096,13.867-17.067h83.2c8.495,0.971,14.655,8.553,13.867,17.067
			C231.191,323.247,225.03,330.829,216.536,331.8z"/>
	</g>
	<g>
		<path d="M457.127,380.754c2.262-0.031,4.428-0.915,6.067-2.475c0.75-0.831,1.356-1.781,1.792-2.813
			c0.474-1.015,0.705-2.126,0.675-3.246c-0.015-2.261-0.898-4.43-2.467-6.059c-2.733-2.769-6.988-3.349-10.363-1.414
			c-3.375,1.935-5.023,5.9-4.015,9.657C449.825,378.163,453.238,380.77,457.127,380.754L457.127,380.754z"/>
		<path d="M438.444,395.517c1.025,0.439,2.127,0.672,3.242,0.683c0.573-0.013,1.144-0.071,1.708-0.171
			c0.534-0.091,1.052-0.264,1.533-0.513c0.544-0.184,1.06-0.442,1.533-0.767c0.433-0.341,0.858-0.683,1.283-1.025
			c3.3-3.365,3.3-8.752,0-12.117c-0.384-0.393-0.815-0.738-1.283-1.025c-0.492-0.317-1.004-0.601-1.533-0.85
			c-0.5-0.182-1.012-0.325-1.533-0.429c-1.657-0.335-3.375-0.186-4.95,0.429c-1.02,0.494-1.968,1.125-2.817,1.875
			c-3.3,3.365-3.3,8.752,0,12.117C436.456,394.48,437.409,395.087,438.444,395.517z"/>
		<path d="M466.519,393.642c1.605,1.615,3.782,2.534,6.059,2.558c4.699-0.033,8.501-3.834,8.533-8.533
			c-0.018-2.262-0.904-4.431-2.475-6.059c-2.441-2.462-6.129-3.201-9.331-1.872c-3.202,1.329-5.281,4.464-5.261,7.931
			C464.063,389.904,464.95,392.047,466.519,393.642z"/>
		<path d="M463.194,397.054c-2.442-2.463-6.131-3.204-9.335-1.874c-3.203,1.329-5.284,4.465-5.265,7.933
			c0,4.713,3.821,8.533,8.533,8.533c4.713,0,8.533-3.82,8.533-8.533c0.03-1.118-0.201-2.228-0.675-3.242
			C464.591,398.818,463.981,397.858,463.194,397.054z"/>
		<path d="M287.29,396.192h6.908v6.908c0,4.713,3.821,8.533,8.533,8.533c4.713,0,8.533-3.821,8.533-8.533v-6.908h6.908
			c4.713,0,8.533-3.82,8.533-8.533s-3.82-8.533-8.533-8.533h-6.908v-6.908c0-4.713-3.821-8.533-8.533-8.533
			c-4.713,0-8.533,3.82-8.533,8.533v6.908h-6.908c-4.713,0-8.533,3.82-8.533,8.533S282.577,396.192,287.29,396.192z"/>
		<path d="M456.536,332.8c-15.081,0.002-29.507,6.168-39.931,17.067h-24.069V332.8c0.031-25.908,21.026-46.903,46.933-46.933
			c35.33-0.039,63.961-28.67,64-64V217.6c-0.039-35.33-28.67-63.961-64-64h-64v-128c-0.015-14.132-11.468-25.585-25.6-25.6H25.602
			C11.47,0.015,0.018,11.468,0.002,25.6v221.867c0.015,14.132,11.468,25.585,25.6,25.6h110.933v17.067
			c-14.138,0-25.6,11.462-25.6,25.6c0,14.138,11.462,25.6,25.6,25.6h102.4c14.139,0,25.6-11.462,25.6-25.6
			c0-14.138-11.461-25.6-25.6-25.6v-17.067h110.933c14.132-0.015,25.585-11.468,25.6-25.6v-76.8h64
			c25.908,0.031,46.903,21.026,46.933,46.933v4.267c-0.031,25.908-21.026,46.903-46.933,46.933c-35.33,0.039-63.961,28.67-64,64
			v17.067h-32.602c-19.991-20.85-52.646-22.844-75.024-4.581c-22.379,18.263-26.971,50.655-10.552,74.42l-4.984,54.261
			c-1.523,17.983,10.848,34.187,28.596,37.458c2.09,0.39,4.211,0.582,6.337,0.575c15.331,0.066,28.925-9.84,33.558-24.454
			l11.444-36.792c5.651,5.839,13.904,8.367,21.856,6.693c7.951-1.673,14.486-7.314,17.304-14.935h17.39
			c2.853,7.76,9.562,13.458,17.681,15.018c8.119,1.56,16.462-1.247,21.987-7.398l11.684,37.521
			c4.688,14.552,18.253,24.399,33.542,24.346c2.089,0.038,4.176-0.151,6.225-0.563c17.777-3.236,30.203-19.424,28.733-37.433
			l-5.231-56.222c10.808-17.069,11.461-38.67,1.703-56.36C495.358,343.733,476.739,332.762,456.536,332.8z M136.536,17.067h42.667
			v25.6h-8.533c-9.422,0.009-17.057,7.645-17.067,17.067V76.8h-17.067V17.067z M25.602,17.067h93.867V76.8
			c0.009,9.422,7.645,17.057,17.067,17.067h17.067c9.422-0.009,17.057-7.645,17.067-17.067V59.733h8.533
			c9.422-0.009,17.057-7.645,17.067-17.067v-25.6h153.6c4.71,0.006,8.527,3.823,8.533,8.533v196.267H247.469v-128
			c-0.009-9.422-7.645-17.057-17.067-17.067h-17.067c-9.422,0.009-17.057,7.645-17.067,17.067v25.6h-17.067
			c-9.422,0.009-17.057,7.645-17.067,17.067V153.6h-17.067c-9.422,0.009-17.057,7.645-17.067,17.067v51.2H17.069V25.6
			C17.075,20.89,20.892,17.073,25.602,17.067z M179.202,221.867V204.8h51.2v17.067H179.202z M145.069,221.867v-51.2h17.067
			c9.422-0.009,17.057-7.645,17.067-17.067v-17.067h17.067v51.2h-17.067c-9.422,0.009-17.057,7.645-17.067,17.067v17.067H145.069z
			 M213.336,128V93.867h17.067v93.867h-17.067V128z M247.469,315.733c-0.006,4.71-3.823,8.527-8.533,8.533h-102.4
			c-4.713,0-8.533-3.821-8.533-8.533c0-4.713,3.821-8.533,8.533-8.533h102.4C243.646,307.206,247.463,311.023,247.469,315.733z
			 M221.869,290.133h-68.267v-17.067h68.267V290.133z M349.869,256H25.602c-4.71-0.006-8.527-3.823-8.533-8.533v-8.533h341.333
			v8.533C358.396,252.177,354.579,255.994,349.869,256z M456.536,349.867c21.208,0,38.4,17.192,38.4,38.4
			c0,21.208-17.192,38.4-38.4,38.4c-21.208,0-38.4-17.192-38.4-38.4C418.159,367.069,435.338,349.89,456.536,349.867z
			 M405.349,366.933c-5.863,14.003-5.696,29.803,0.461,43.68c-7.8,1.781-14.189,7.35-17.019,14.833h-17.391
			c-2.91-7.708-9.589-13.369-17.669-14.978c6.089-13.845,6.23-29.582,0.392-43.535H405.349z M302.936,349.867
			c18.015-0.105,33.682,12.327,37.672,29.896c3.99,17.568-4.77,35.548-21.063,43.235c-16.294,7.686-35.74,3.012-46.761-11.239
			c-0.097-0.123-0.19-0.238-0.294-0.356c-5.127-6.625-7.923-14.758-7.953-23.135C264.559,367.069,281.738,349.89,302.936,349.867z
			 M304.519,482.421c-2.407,7.499-9.404,12.566-17.279,12.512c-1.082,0.006-2.161-0.09-3.225-0.287
			c-9.092-1.624-15.462-9.89-14.717-19.096l3.732-40.643c13.05,8.482,29.098,10.996,44.117,6.912L304.519,482.421z M349.215,440.887
			c-2.808,0.064-5.375-1.577-6.494-4.153c-1.119-2.576-0.568-5.572,1.395-7.581s4.946-2.629,7.547-1.57s4.302,3.588,4.302,6.396
			C356.003,437.749,352.984,440.838,349.215,440.887z M410.977,440.887c-2.808,0.064-5.375-1.577-6.494-4.153
			c-1.119-2.576-0.568-5.572,1.395-7.581c1.963-2.009,4.946-2.629,7.547-1.57s4.302,3.588,4.302,6.396
			C417.767,437.749,414.747,440.84,410.977,440.887z M476.519,494.713c-0.934,0.172-1.884,0.246-2.833,0.221
			c-7.849,0.046-14.829-4.98-17.275-12.438l-12.538-40.277c15.131,3.633,31.094,0.666,43.909-8.162l3.87,41.544
			C492.318,484.929,485.752,493.222,476.519,494.713z"/>
	</g>
</g>
<g>
</g>
<g>
</g>
<g>
</g>
<g>
</g>
<g>
</g>
<g>
</g>
<g>
</g>
<g>
</g>
<g>
</g>
<g>
</g>
<g>
</g>
<g>
</g>
<g>
</g>
<g>
</g>
<g>
</g>
</svg>
